<svg width="187" height="250" viewBox="0 0 187 250" fill="none" xmlns="http://www.w3.org/2000/svg">
<path opacity="0.2" d="M120.293 18.1038C118.634 21.001 117.613 24.2194 117.299 27.5433L97.9119 249.17H157.908L169.965 202.962L165.993 156.741L178.05 110.533L174.144 64.3248L186.201 18.1038H120.293Z" fill="black"/>
<path d="M168.871 51.3047L180.927 5.08374H29.2054L17.1619 51.3047L21.12 97.5127L9.07646 143.721L13.0345 189.942L0.991028 236.15H152.7L164.757 189.942L160.785 143.721L172.842 97.5127L168.871 51.3047Z" fill="#407BFF"/>
<path opacity="0.7" d="M168.871 51.3047L180.927 5.08374H29.2054L17.1619 51.3047L21.12 97.5127L9.07646 143.721L13.0345 189.942L0.991028 236.15H152.7L164.757 189.942L160.785 143.721L172.842 97.5127L168.871 51.3047Z" fill="white"/>
<path opacity="0.5" d="M168.871 51.3047H17.1619L29.2054 5.08374H180.927L168.871 51.3047Z" fill="white"/>
<path opacity="0.5" d="M160.785 143.721H9.07645L21.1199 97.5127H172.842L160.785 143.721Z" fill="white"/>
<path opacity="0.5" d="M152.7 236.15H0.978012L13.0345 189.942H164.757L152.7 236.15Z" fill="white"/>
<path opacity="0.2" d="M148.573 70.6133C147.016 71.0632 145.402 71.2825 143.781 71.2643C141.584 71.3616 139.397 70.9143 137.415 69.9623C137.056 69.7498 136.647 69.6374 136.23 69.6368V69.6368C135.847 69.6422 135.472 69.7405 135.136 69.9233H135.058C134.476 70.2497 133.855 70.4992 133.209 70.6654C131.752 71.05 130.25 71.2383 128.743 71.2253C128.288 71.2253 127.845 71.2253 127.441 71.2253C126.272 71.1502 125.115 70.945 123.991 70.6133C123.826 70.5642 123.655 70.5336 123.483 70.5222C123.197 70.4989 122.909 70.535 122.637 70.6284C122.365 70.7217 122.116 70.8703 121.904 71.0647C121.693 71.2591 121.524 71.4952 121.408 71.7581C121.292 72.021 121.232 72.3051 121.231 72.5924V72.5924V73.9985H62.172C61.0869 73.9985 60.0124 74.2125 59.0101 74.6281C58.0077 75.0438 57.0971 75.653 56.3305 76.4209C55.5638 77.1888 54.956 78.1003 54.5419 79.1033C54.1279 80.1063 53.9156 81.1811 53.9173 82.2662V90.586C53.9139 91.6722 54.1249 92.7484 54.5382 93.7529C54.9515 94.7575 55.559 95.6705 56.3258 96.4398C57.0927 97.2091 58.0038 97.8195 59.0071 98.2359C60.0103 98.6524 61.0858 98.8667 62.172 98.8667H129.264H129.707C130.423 99.4657 131.178 100.065 131.985 100.677C132.792 101.288 133.938 102.135 134.993 102.89C135.353 103.15 135.786 103.291 136.23 103.291C136.674 103.291 137.107 103.15 137.467 102.89C145.904 96.7705 151.32 92.552 151.32 80.9642V72.6314C151.324 72.2982 151.249 71.9688 151.1 71.6705C150.951 71.3723 150.733 71.1138 150.465 70.9165C150.196 70.7192 149.885 70.5888 149.555 70.536C149.226 70.4833 148.89 70.5098 148.573 70.6133V70.6133Z" fill="black"/>
<path d="M127.975 69.4285H60.896C56.3299 69.4285 52.6283 73.1301 52.6283 77.6962V86.016C52.6283 90.5821 56.3299 94.2837 60.896 94.2837H127.975C132.541 94.2837 136.243 90.5821 136.243 86.016V77.6962C136.243 73.1301 132.541 69.4285 127.975 69.4285Z" fill="#407BFF"/>
<path d="M142.492 66.6813C140.296 66.7753 138.109 66.3282 136.126 65.3793C135.773 65.1629 135.368 65.0483 134.954 65.0483C134.54 65.0483 134.135 65.1629 133.782 65.3793C131.794 66.3298 129.603 66.7769 127.402 66.6813C125.782 66.6986 124.168 66.4793 122.611 66.0303C122.297 65.9248 121.963 65.8956 121.636 65.945C121.308 65.9945 120.998 66.1211 120.729 66.3146C120.461 66.508 120.242 66.7626 120.092 67.0574C119.941 67.3521 119.863 67.6784 119.864 68.0094V76.3422C119.864 87.943 125.28 92.1615 133.717 98.2809C134.077 98.5414 134.51 98.6816 134.954 98.6816C135.398 98.6816 135.831 98.5414 136.191 98.2809C144.628 92.1615 150.044 87.943 150.044 76.3422V68.0094C150.043 67.6779 149.963 67.3515 149.81 67.057C149.658 66.7624 149.439 66.5081 149.169 66.315C148.9 66.1218 148.589 65.9954 148.261 65.9459C147.933 65.8964 147.598 65.9253 147.284 66.0303C145.727 66.4802 144.113 66.6995 142.492 66.6813V66.6813Z" fill="#407BFF"/>
<path opacity="0.3" d="M142.492 66.6813C140.296 66.7753 138.109 66.3282 136.126 65.3793C135.773 65.1629 135.368 65.0483 134.954 65.0483C134.54 65.0483 134.135 65.1629 133.782 65.3793C131.794 66.3298 129.603 66.7769 127.402 66.6813C125.782 66.6986 124.168 66.4793 122.611 66.0303C122.297 65.9248 121.963 65.8956 121.636 65.945C121.308 65.9945 120.998 66.1211 120.729 66.3146C120.461 66.508 120.242 66.7626 120.092 67.0574C119.941 67.3521 119.863 67.6784 119.864 68.0094V76.3422C119.864 87.943 125.28 92.1615 133.717 98.2809C134.077 98.5414 134.51 98.6816 134.954 98.6816C135.398 98.6816 135.831 98.5414 136.191 98.2809C144.628 92.1615 150.044 87.943 150.044 76.3422V68.0094C150.043 67.6779 149.963 67.3515 149.81 67.057C149.658 66.7624 149.439 66.5081 149.169 66.315C148.9 66.1218 148.589 65.9954 148.261 65.9459C147.933 65.8964 147.598 65.9253 147.284 66.0303C145.727 66.4802 144.113 66.6995 142.492 66.6813V66.6813Z" fill="white"/>
<path opacity="0.2" d="M133.782 65.3533C131.794 66.3038 129.603 66.7509 127.402 66.6553C125.782 66.6717 124.168 66.4524 122.611 66.0043C122.297 65.8988 121.963 65.8696 121.636 65.919C121.308 65.9685 120.998 66.0951 120.729 66.2886C120.461 66.482 120.242 66.7366 120.092 67.0313C119.941 67.3261 119.863 67.6524 119.864 67.9833V76.3162C119.864 87.917 125.28 92.1354 133.717 98.2548C134.095 98.5289 134.552 98.6708 135.019 98.6585V65.0148C134.583 65.0061 134.153 65.1237 133.782 65.3533V65.3533Z" fill="white"/>
<path d="M147.049 74.0767C141.974 76.0651 137.454 79.2498 133.873 83.36C131.376 81.5192 128.449 80.3493 125.371 79.9617H124.967V81.9538L125.189 82.0319C128.612 83.2673 131.562 85.5439 133.626 88.5419L133.951 89.0106L134.225 88.5028C137.218 82.9403 141.776 78.3774 147.336 75.3787L147.531 75.2875V73.9855L147.049 74.0767Z" fill="#263238"/>
<path d="M178.245 18.0907H172.49C171.75 18.1045 171.015 17.9602 170.335 17.6675C169.655 17.3748 169.045 16.9404 168.546 16.3934C168.047 15.8463 167.67 15.1991 167.441 14.4949C167.212 13.7907 167.136 13.0458 167.217 12.3098L167.725 6.55499C167.881 4.98988 168.607 3.53656 169.763 2.4709C170.92 1.40525 172.428 0.801438 174.001 0.774108H179.756C180.497 0.758465 181.233 0.901359 181.915 1.19322C182.597 1.48508 183.208 1.9192 183.709 2.46649C184.209 3.01379 184.587 3.66165 184.817 4.36675C185.047 5.07184 185.123 5.81789 185.042 6.55499L184.534 12.3098C184.359 13.8696 183.626 15.3137 182.47 16.3759C181.315 17.4382 179.814 18.0472 178.245 18.0907V18.0907Z" fill="#407BFF"/>
<path d="M180.641 6.54194L179.391 5.1618L176.24 8.05225L173.61 5.1618L172.113 6.54194L174.756 9.43238L171.618 12.3228L172.868 13.6899L176.006 10.7995L178.649 13.6899L180.133 12.3228L177.49 9.43238L180.641 6.54194Z" fill="white"/>
</svg>
