<svg width="32" height="11" viewBox="0 0 32 11" fill="none" xmlns="http://www.w3.org/2000/svg">
<path d="M11.9161 0.859253H2.99737C2.83611 0.861235 2.68026 0.917573 2.55502 1.01918C2.42978 1.12079 2.34249 1.26171 2.30732 1.4191L0.692849 8.67125C0.651181 8.84684 0.650162 9.0296 0.689889 9.20563C0.729615 9.38167 0.809035 9.5463 0.922074 9.68697C1.03511 9.82764 1.17879 9.94063 1.34214 10.0173C1.50549 10.094 1.6842 10.1324 1.86464 10.1295C5.08058 10.1295 9.67665 9.8821 13.778 9.8821C18.5042 9.8821 22.5795 10.1425 28.1 10.1425C31.4461 10.1425 32.3835 6.75732 30.9774 6.44484C24.5845 5.0517 19.3765 4.89544 13.8561 1.49722C13.2791 1.1128 12.6086 0.892308 11.9161 0.859253V0.859253Z" fill="#263238"/>
</svg>
