<svg width="4" height="3" viewBox="0 0 4 3" fill="none" xmlns="http://www.w3.org/2000/svg">
<path d="M0.666145 2.24912C0.591142 2.24822 0.517968 2.22575 0.455397 2.18439C0.392825 2.14303 0.343497 2.08452 0.313288 2.01586C0.28308 1.9472 0.273281 1.8713 0.285057 1.79722C0.296834 1.72315 0.329693 1.65402 0.379704 1.59812C0.787341 1.13689 1.29821 0.778547 1.87066 0.552281C2.44311 0.326015 3.06094 0.238232 3.67376 0.296117C3.72421 0.305507 3.77231 0.324751 3.81531 0.352738C3.85832 0.380724 3.89538 0.416905 3.9244 0.459224C3.95342 0.501543 3.97383 0.549162 3.98444 0.599366C3.99505 0.64957 3.99565 0.701384 3.98623 0.751825C3.97838 0.801741 3.96061 0.849564 3.93394 0.892483C3.90727 0.935401 3.87225 0.972532 3.83097 1.00167C3.78969 1.03081 3.74298 1.05137 3.69361 1.06213C3.64424 1.07288 3.59322 1.07362 3.54355 1.06429C3.05791 1.01773 2.56816 1.08799 2.11518 1.26918C1.6622 1.45037 1.25912 1.73725 0.939554 2.1059C0.870111 2.18688 0.77226 2.23814 0.666145 2.24912V2.24912Z" fill="#263238"/>
</svg>
