<svg width="21" height="50" viewBox="0 0 21 50" fill="none" xmlns="http://www.w3.org/2000/svg">
<path d="M19.6051 3.39203C18.7458 7.53239 17.6782 11.6337 16.5715 15.722C15.4648 19.8103 14.2539 23.8595 12.991 27.9087L12.5222 29.432L12.2879 30.1872C12.2565 30.2959 12.2128 30.4008 12.1577 30.4997C12.0092 30.9185 11.9258 31.3576 11.9103 31.8017C11.8828 32.7477 12.1464 33.6794 12.6655 34.4708C12.9216 34.8179 13.2046 35.1444 13.5118 35.4473L14.5924 36.6321L16.7277 39.0148C18.1209 40.6292 19.527 42.2437 20.8551 43.9363L16.3111 49.1443C14.4362 48.0767 12.6394 46.9179 10.8427 45.7721L8.17357 44.0014L6.87157 43.103C6.42889 42.7905 6.06434 42.5822 5.34824 41.9963C2.80077 39.8253 1.04293 36.8727 0.348561 33.5984C-0.000892031 31.9294 -0.0843851 30.2157 0.101177 28.5206C0.101177 28.104 0.23137 27.6353 0.29647 27.2186L0.43969 26.4374L0.713119 24.875C1.44224 20.6956 2.22344 16.5292 3.09578 12.3889C3.96812 8.24849 4.90555 4.12116 6.01225 0.0458984L19.6051 3.39203Z" fill="#B55B52"/>
</svg>
