<svg width="35" height="39" viewBox="0 0 35 39" fill="none" xmlns="http://www.w3.org/2000/svg">
<path d="M32.1374 7.79663C35.0539 4.11197 30.562 3.89063 30.562 3.89063C31.7338 -0.497108 26.4737 1.85952 26.4737 1.85952C23.3229 -2.48916 21.5391 2.80997 21.5391 2.80997C18.2711 -0.87469 17.6331 5.14054 17.6331 5.14054C14.3521 0.466361 12.6855 7.21074 12.6855 7.21074C9.6649 2.35428 7.81607 8.66897 7.81607 8.66897C1.57949 6.44255 4.53502 12.9265 4.53502 12.9265C-0.777136 13.0697 3.49342 17.1971 3.49342 17.1971C-2.88638 17.1971 2.73826 20.8557 2.73826 20.8557C-2.32652 24.1758 4.04026 25.0742 4.04026 25.0742C-0.087083 31.5842 7.00881 29.1364 7.00881 29.1364C4.13139 35.5422 10.4982 32.7169 10.4982 32.7169C10.0946 38.8884 13.649 37.2088 15.3677 36.063C15.6932 37.365 16.3181 38.667 17.4639 38.7712C19.6903 39.0707 20.0679 34.8652 20.0679 34.8652C20.0679 34.8652 22.125 36.4797 23.8567 35.6073C25.5884 34.735 24.9374 32.5346 24.9374 32.5346C25.3133 32.8157 25.77 32.9675 26.2394 32.9675C26.7087 32.9675 27.1655 32.8157 27.5414 32.5346C28.2835 31.9617 28.2835 27.8214 27.3461 26.3631L30.7313 25.0611C30.7313 25.0611 33.2441 24.7096 32.1244 21.3895C31.4487 19.4813 31.3895 17.4091 31.9551 15.4654C35.783 13.6687 32.6322 11.5594 32.6322 11.5594C37.072 8.70803 32.1374 7.79663 32.1374 7.79663Z" fill="#263238"/>
</svg>
