<svg width="26" height="14" viewBox="0 0 26 14" fill="none" xmlns="http://www.w3.org/2000/svg">
<path d="M13.636 1.9585L4.66521 0.0184957C4.50812 -0.0172528 4.3435 0.00206663 4.19893 0.0731695C4.05435 0.144272 3.93858 0.262869 3.87099 0.40912L0.759214 7.1665C0.682612 7.33056 0.644626 7.50997 0.648177 7.69099C0.651728 7.87201 0.696719 8.04982 0.779696 8.21075C0.862673 8.37167 0.981429 8.51146 1.12684 8.61933C1.27225 8.72721 1.44045 8.80032 1.61853 8.83306C4.75635 9.45802 6.31876 9.60124 10.2638 10.4606C12.6855 10.9814 18.167 12.3224 21.5131 13.0646C24.8592 13.8067 26.018 10.5777 24.716 9.97883C18.857 7.30973 16.4093 4.95308 14.8208 2.7527C14.5357 2.35257 14.1144 2.07019 13.636 1.9585V1.9585Z" fill="#263238"/>
</svg>
