<svg width="53" height="37" viewBox="0 0 53 37" fill="none" xmlns="http://www.w3.org/2000/svg">
<path d="M10.6337 0.735962C13.9668 4.36854 17.1437 8.13132 20.3076 11.9201C23.4714 15.709 26.5311 19.5759 29.5778 23.4559C29.708 23.6251 29.6559 23.56 29.682 23.6121C29.708 23.6642 29.682 23.6772 29.682 23.6902C29.7047 23.7385 29.7356 23.7825 29.7731 23.8204C29.8841 23.9781 30.0252 24.1123 30.1884 24.2151C30.3515 24.3179 30.5334 24.3873 30.7236 24.4193C30.8705 24.4392 31.0194 24.4392 31.1663 24.4193C31.2443 24.4254 31.3226 24.4254 31.4006 24.4193H31.5178C31.5829 24.4193 31.5178 24.4193 31.7261 24.3412L34.9811 22.5705C39.3558 20.2529 43.7696 17.9874 48.3266 15.9563L52.1415 20.6826C48.4698 24.0548 44.642 28.2863 40.775 31.385L37.8585 33.6765C37.6774 33.8245 37.4859 33.9594 37.2857 34.0802C37.0646 34.2374 36.8342 34.3808 36.5956 34.5098C36.1243 34.7813 35.6373 35.0248 35.1374 35.239C34.1286 35.6628 33.0697 35.956 31.9865 36.1113C29.796 36.4329 27.56 36.2093 25.4765 35.4603C24.4167 35.084 23.4101 34.5719 22.4819 33.937C22.0132 33.6245 21.5705 33.2599 21.1799 32.9084C20.9586 32.7261 20.7763 32.5178 20.568 32.3225L20.0472 31.8017C16.5969 28.2602 13.1987 24.6928 9.86554 21.0602C6.53242 17.4276 3.23836 13.769 0.0875244 9.96714L10.6337 0.735962Z" fill="#B55B52"/>
</svg>
