<svg width="140" height="340" viewBox="0 0 140 340" fill="none" xmlns="http://www.w3.org/2000/svg">
<path d="M89.6337 60.736C92.9668 64.3685 96.1437 68.1313 99.3076 71.9201C102.471 75.709 105.531 79.5759 108.578 83.4559C108.708 83.6251 108.656 83.56 108.682 83.6121C108.708 83.6642 108.682 83.6772 108.682 83.6902C108.705 83.7385 108.736 83.7825 108.773 83.8204C108.884 83.9781 109.025 84.1123 109.188 84.2151C109.352 84.3179 109.533 84.3873 109.724 84.4193C109.87 84.4392 110.019 84.4392 110.166 84.4193C110.244 84.4254 110.323 84.4254 110.401 84.4193H110.518C110.583 84.4193 110.518 84.4193 110.726 84.3412L113.981 82.5705C118.356 80.2529 122.77 77.9874 127.327 75.9563L131.141 80.6826C127.47 84.0548 123.642 88.2863 119.775 91.385L116.859 93.6765C116.677 93.8245 116.486 93.9594 116.286 94.0802C116.065 94.2374 115.834 94.3808 115.596 94.5098C115.124 94.7813 114.637 95.0248 114.137 95.239C113.129 95.6628 112.07 95.956 110.987 96.1113C108.796 96.4329 106.56 96.2093 104.477 95.4603C103.417 95.084 102.41 94.5719 101.482 93.937C101.013 93.6245 100.571 93.2599 100.18 92.9084C99.9586 92.7261 99.7763 92.5178 99.568 92.3225L99.0472 91.8017C95.5969 88.2602 92.1987 84.6928 88.8655 81.0602C85.5324 77.4276 82.2384 73.769 79.0875 69.9671L89.6337 60.736Z" fill="#B55B52"/>
<path d="M125.608 78.8208L128.642 69.0688L136.636 73.053C136.636 73.053 135.464 80.1619 129.657 81.3988L125.608 78.8208Z" fill="#B55B52"/>
<path d="M131.832 66.3737L139.045 68.3527L136.623 73.0529L128.629 69.0688L131.832 66.3737Z" fill="#B55B52"/>
<path d="M47.6051 63.392C46.7458 67.5324 45.6782 71.6337 44.5715 75.722C43.4648 79.8103 42.2539 83.8595 40.991 87.9087L40.5222 89.432L40.2879 90.1872C40.2565 90.2959 40.2128 90.4008 40.1577 90.4997C40.0092 90.9185 39.9258 91.3576 39.9103 91.8017C39.8828 92.7477 40.1464 93.6794 40.6655 94.4708C40.9216 94.8179 41.2046 95.1444 41.5118 95.4473L42.5924 96.6321L44.7277 99.0148C46.1209 100.629 47.527 102.244 48.8551 103.936L44.3111 109.144C42.4362 108.077 40.6394 106.918 38.8427 105.772L36.1736 104.001L34.8716 103.103C34.4289 102.791 34.0643 102.582 33.3482 101.996C30.8008 99.8253 29.0429 96.8727 28.3486 93.5984C27.9991 91.9294 27.9156 90.2157 28.1012 88.5206C28.1012 88.104 28.2314 87.6353 28.2965 87.2186L28.4397 86.4374L28.7131 84.875C29.4422 80.6956 30.2234 76.5292 31.0958 72.3889C31.9681 68.2485 32.9055 64.1212 34.0122 60.0459L47.6051 63.392Z" fill="#B55B52"/>
<path d="M44.4023 103.52L49.7665 100.772L52.1362 109.886C52.1362 109.886 47.8265 111.54 44.4934 109.418L44.4023 103.52Z" fill="#B55B52"/>
<path d="M57.1879 97.843L57.4353 106.228L51.4331 110.147L49.3499 100.942L57.1879 97.843Z" fill="#B55B52"/>
<path d="M74.7519 20.3479C74.8821 20.9859 75.3378 21.4415 75.7544 21.3634C76.1711 21.2853 76.4184 20.6864 76.2882 20.0614C76.158 19.4365 75.7023 18.9678 75.2857 19.0459C74.869 19.124 74.6217 19.7359 74.7519 20.3479Z" fill="#263238"/>
<path d="M75.2727 21.4547C76.4448 23.2706 77.8598 24.9177 79.4782 26.3502C79.1014 26.7561 78.6405 27.0747 78.1278 27.2839C77.615 27.493 77.0627 27.5876 76.5096 27.5611L75.2727 21.4547Z" fill="#A02724"/>
<path d="M71.6661 17.2491C71.5911 17.2482 71.518 17.2258 71.4554 17.1844C71.3928 17.143 71.3435 17.0845 71.3133 17.0159C71.2831 16.9472 71.2733 16.8713 71.2851 16.7972C71.2968 16.7231 71.3297 16.654 71.3797 16.5981C71.7873 16.1369 72.2982 15.7785 72.8707 15.5523C73.4431 15.326 74.0609 15.2382 74.6738 15.2961C74.7242 15.3055 74.7723 15.3248 74.8153 15.3527C74.8583 15.3807 74.8954 15.4169 74.9244 15.4592C74.9534 15.5015 74.9738 15.5492 74.9844 15.5994C74.995 15.6496 74.9956 15.7014 74.9862 15.7518C74.9784 15.8017 74.9606 15.8496 74.9339 15.8925C74.9073 15.9354 74.8722 15.9725 74.831 16.0017C74.7897 16.0308 74.743 16.0514 74.6936 16.0621C74.6442 16.0729 74.5932 16.0736 74.5436 16.0643C74.0579 16.0177 73.5682 16.088 73.1152 16.2692C72.6622 16.4504 72.2591 16.7372 71.9396 17.1059C71.8701 17.1869 71.7723 17.2381 71.6661 17.2491Z" fill="#263238"/>
<path d="M55.977 29.4229C57.4092 35.399 58.8544 46.3489 53.7245 50.32C53.7245 50.32 55.7296 56.3873 69.3485 56.3873C84.3215 56.3873 76.5095 52.4813 76.5095 52.4813C68.333 50.8928 68.5413 43.7969 69.9995 39.1488L55.977 29.4229Z" fill="#B55B52"/>
<path d="M52.1232 51.4267C51.2378 49.7732 50.2483 47.8722 52.2794 47.2733C54.5188 46.6223 68.8799 45.4115 73.1114 46.6354C71.8094 48.9399 74.0098 51.8434 74.0098 51.8434L52.1232 51.4267Z" fill="#263238"/>
<path d="M64.0234 330.81H73.4108L74.3482 311.905H64.9478L64.0234 330.81Z" fill="#B55B52"/>
<path d="M4.40485 328.206L13.9225 328.714L19.7033 310.082L10.1857 309.574L4.40485 328.206Z" fill="#B55B52"/>
<path d="M13.636 327.959L4.66521 326.018C4.50812 325.983 4.3435 326.002 4.19893 326.073C4.05435 326.144 3.93858 326.263 3.87099 326.409L0.759214 333.167C0.682612 333.331 0.644626 333.51 0.648177 333.691C0.651728 333.872 0.696719 334.05 0.779696 334.211C0.862673 334.372 0.981429 334.511 1.12684 334.619C1.27225 334.727 1.44045 334.8 1.61853 334.833C4.75635 335.458 6.31876 335.601 10.2638 336.461C12.6855 336.981 18.167 338.322 21.5131 339.065C24.8592 339.807 26.018 336.578 24.716 335.979C18.857 333.31 16.4093 330.953 14.8208 328.753C14.5357 328.353 14.1144 328.07 13.636 327.959Z" fill="#263238"/>
<path d="M72.9161 329.859H63.9974C63.8361 329.861 63.6803 329.918 63.555 330.019C63.4298 330.121 63.3425 330.262 63.3073 330.419L61.6928 337.671C61.6512 337.847 61.6502 338.03 61.6899 338.206C61.7296 338.382 61.809 338.546 61.9221 338.687C62.0351 338.828 62.1788 338.941 62.3421 339.017C62.5055 339.094 62.6842 339.132 62.8646 339.129C66.0806 339.129 70.6767 338.882 74.778 338.882C79.5042 338.882 83.5795 339.143 89.1 339.143C92.4461 339.143 93.3835 335.757 91.9774 335.445C85.5845 334.052 80.3765 333.895 74.8561 330.497C74.2791 330.113 73.6086 329.892 72.9161 329.859Z" fill="#263238"/>
<path d="M36.7074 53.0802C29.6245 56.4523 27.6976 76.8937 27.6976 76.8937L45.2355 84.9922C48.2 79.992 49.8151 74.3077 49.9227 68.4958C50.2742 57.9366 43.9595 49.6819 36.7074 53.0802Z" fill="#263238"/>
<path opacity="0.4" d="M46.186 65.6835C43.0222 70.6051 43.3216 78.2088 44.4153 84.6276L45.1965 84.9922C48.1582 79.9909 49.7731 74.3073 49.8837 68.4959C49.8837 67.8709 49.8837 67.1939 49.8837 66.634L46.186 65.6835Z" fill="black"/>
<path d="M85.6496 52.5855C85.6496 52.5855 94.347 62.4025 86.1313 123.154H42.4753C42.1758 116.449 46.3813 83.7554 39.8713 52.1688C44.6962 51.2407 49.5757 50.6232 54.4797 50.32C60.6636 49.9682 66.8624 49.9682 73.0463 50.32C77.2993 50.7508 81.5128 51.5082 85.6496 52.5855Z" fill="#407BFF"/>
<path opacity="0.6" d="M85.6496 52.5855C85.6496 52.5855 94.347 62.4025 86.1313 123.154H42.4753C42.1758 116.449 46.3813 83.7554 39.8713 52.1688C44.6962 51.2407 49.5757 50.6232 54.4797 50.32C60.6636 49.9682 66.8624 49.9682 73.0463 50.32C77.2993 50.7508 81.5128 51.5082 85.6496 52.5855Z" fill="#FAFAFA"/>
<path opacity="0.2" d="M89.4645 71.152L89.3083 71.0088L80.6239 66.3737C79.7386 79.7452 85.7148 88.1301 89.2692 91.7887C89.7148 84.9186 89.78 78.0292 89.4645 71.152Z" fill="black"/>
<path opacity="0.2" d="M74.3483 311.905L73.8665 321.657H64.4661L64.9478 311.905H74.3483Z" fill="black"/>
<path opacity="0.2" d="M10.1857 309.587L19.7033 310.082L16.7217 319.691L7.2041 319.183L10.1857 309.587Z" fill="black"/>
<path d="M52.9564 23.3555C55.0526 31.1675 55.8859 35.8678 60.7684 39.1228C68.0335 44.0183 77.0694 38.3936 77.3559 30.0999C77.6032 22.6394 74.1399 11.0907 65.742 9.51527C63.8879 9.14842 61.9707 9.26311 60.1736 9.84836C58.3765 10.4336 56.7594 11.4699 55.4769 12.8582C54.1944 14.2465 53.2893 15.9404 52.848 17.7782C52.4067 19.616 52.444 21.5363 52.9564 23.3555Z" fill="#B55B52"/>
<path d="M70.6505 123.154C70.6505 123.154 61.3803 185.533 56.3285 208.917C50.7299 234.566 20.8621 319.196 20.8621 319.196L6.2406 316.032C6.2406 316.032 24.9764 247.026 29.6766 211.247C31.4994 197.277 33.6998 174.791 36.4861 156.003C39.1812 137.775 42.5013 123.167 42.5013 123.167L70.6505 123.154Z" fill="#263238"/>
<path d="M24.3645 314.313L21.6303 319.6L5.19904 316.032L6.57916 311.098L24.3645 314.313Z" fill="#407BFF"/>
<path opacity="0.6" d="M24.3645 314.313L21.6303 319.6L5.19904 316.032L6.57916 311.098L24.3645 314.313Z" fill="white"/>
<path opacity="0.6" d="M64.7916 145.379C54.0761 147.475 55.2089 187.434 56.4978 207.979C59.5966 193.449 64.1145 165.508 67.2003 145.665C66.4536 145.298 65.6036 145.197 64.7916 145.379Z" fill="black"/>
<path d="M86.1313 123.154C86.1313 123.154 90.493 184.192 89.6077 209.086C88.6833 234.983 76.4054 319.756 76.4054 319.756H62.5781C62.5781 319.756 62.0704 236.428 61.4584 211.052C60.7814 183.319 57.4352 123.141 57.4352 123.141L86.1313 123.154Z" fill="#263238"/>
<path d="M79.0615 314.261C79.1266 314.261 78.2803 320.003 78.2803 320.003H61.4584L61.0027 314.873L79.0615 314.261Z" fill="#407BFF"/>
<path opacity="0.6" d="M79.0615 314.261C79.1266 314.261 78.2803 320.003 78.2803 320.003H61.4584L61.0027 314.873L79.0615 314.261Z" fill="white"/>
<path d="M80.5588 64.004C80.5588 80.3832 89.2692 87.1276 89.2692 87.1276L103.474 73.3003C100.112 67.6814 96.2834 62.3548 92.0294 57.3769C83.8138 47.9634 80.5588 53.4839 80.5588 64.004Z" fill="#263238"/>
<path opacity="0.2" d="M76.809 33.0685C76.5194 33.8893 76.0335 34.6269 75.3935 35.2169C74.7536 35.8069 73.979 36.2315 73.1374 36.4537C72.2117 36.6425 71.3713 37.1243 70.7405 37.8277C70.1098 38.5311 69.7222 39.4189 69.635 40.3597C71.3209 39.7959 72.8496 38.8415 74.0964 37.5744C75.3432 36.3072 76.2727 34.7633 76.809 33.0685Z" fill="black"/>
<path d="M73.1374 7.79663C76.0539 4.11197 71.562 3.89063 71.562 3.89063C72.7338 -0.497108 67.4737 1.85952 67.4737 1.85952C64.3229 -2.48916 62.5391 2.80997 62.5391 2.80997C59.2711 -0.87469 58.6331 5.14054 58.6331 5.14054C55.3521 0.466361 53.6855 7.21074 53.6855 7.21074C50.6649 2.35428 48.8161 8.66897 48.8161 8.66897C42.5795 6.44255 45.535 12.9265 45.535 12.9265C40.2229 13.0697 44.4934 17.1971 44.4934 17.1971C38.1136 17.1971 43.7383 20.8557 43.7383 20.8557C38.6735 24.1758 45.0403 25.0742 45.0403 25.0742C40.9129 31.5842 48.0088 29.1364 48.0088 29.1364C45.1314 35.5422 51.4982 32.7169 51.4982 32.7169C51.0946 38.8884 54.649 37.2088 56.3677 36.063C56.6932 37.365 57.3181 38.667 58.4639 38.7712C60.6903 39.0707 61.0679 34.8652 61.0679 34.8652C61.0679 34.8652 63.125 36.4797 64.8567 35.6073C66.5884 34.735 65.9374 32.5346 65.9374 32.5346C66.3133 32.8157 66.77 32.9675 67.2394 32.9675C67.7087 32.9675 68.1655 32.8157 68.5414 32.5346C69.2835 31.9618 69.2835 27.8214 68.3461 26.3631L71.7313 25.0611C71.7313 25.0611 74.2441 24.7096 73.1244 21.3895C72.4487 19.4813 72.3895 17.4091 72.9551 15.4654C76.783 13.6687 73.6322 11.5594 73.6322 11.5594C78.072 8.70803 73.1374 7.79663 73.1374 7.79663Z" fill="#263238"/>
<path d="M66.2758 23.6421C66.8058 25.5845 67.9641 27.2968 69.5699 28.5115C71.6922 30.1 73.2806 28.5115 73.1243 26.1289C72.9941 23.9676 71.7182 20.5433 69.3746 19.8923C67.031 19.2413 65.716 21.3375 66.2758 23.6421Z" fill="#B55B52"/>
</svg>
