<svg width="331" height="73" viewBox="0 0 331 73" fill="none" xmlns="http://www.w3.org/2000/svg">
<path d="M16.8329 53.5707C16.6938 53.4562 16.6912 53.3674 16.553 53.2825C7.01334 47.3084 9.68312 41.1261 21.172 34.8343C29.8563 30.1062 42.9001 25.9323 59.2141 22.1963C88.3343 15.4491 122.672 10.7423 161.96 8.23208C190.68 6.38597 219.167 5.85053 247.161 6.98897C263.331 7.64287 278.161 8.83971 291.114 10.8618C304.339 12.9055 313.919 15.5892 319.313 19.0469C320.003 19.4416 320.829 19.8324 321.655 20.2231C328.951 23.7439 331.234 27.5591 329.045 31.6235C326.082 37.044 316.455 42.0368 301.253 46.6589C300.043 47.0498 298.697 47.4447 297.623 47.8613C274.392 56.422 241.858 62.4689 200.288 65.8458C151.541 69.788 105.387 69.5354 62.4983 64.9499C44.3901 63.0191 28.9743 60.3281 17.7365 56.6261C-1.72366 50.2305 -3.69756 43.0577 10.0527 35.1886C18.7292 30.194 32.1737 25.801 48.8868 21.7866C75.5747 15.4067 107.334 10.716 142.799 7.45803C162.292 5.67392 181.938 4.47801 202.009 3.92159C214.35 3.56127 226.698 3.4378 238.657 3.94799C245.043 4.206 251.029 4.65355 256.074 5.45449C257.846 5.7287 259.349 6.07005 260.851 6.38179C261.671 6.56529 262.357 6.81196 261.147 7.20289C260.603 7.15952 259.924 7.14971 259.514 7.07276C252.542 5.35019 242.887 4.71348 232.426 4.3966C220.473 4.06406 208.263 4.27239 195.927 4.78076C145.633 6.87154 100.856 11.972 62.0031 20.0998C42.7126 24.1598 27.3755 28.8155 16.9438 34.1281C9.05422 38.1811 5.37291 42.2594 6.98654 46.3906C7.87284 48.8539 10.9255 51.1354 15.602 53.251C15.7402 53.3359 16.014 53.4168 16.287 53.4681C16.2887 53.5273 16.5599 53.5194 16.8329 53.5707ZM323.508 32.5557C321.894 33.0769 321.638 33.6178 322.197 34.1349C321.928 34.2316 321.387 34.3067 321.254 34.3995C320.723 34.8002 320.464 35.2226 320.069 35.649C320.205 35.6451 320.34 35.6411 320.477 35.6667C321.005 35.1476 321.533 34.658 322.197 34.1349C322.589 33.6197 322.98 33.0748 323.508 32.5557C323.499 32.2596 323.627 31.9892 323.755 31.7187C323.483 31.7266 323.348 31.7306 323.077 31.7385C323.221 32.0306 323.364 32.2932 323.508 32.5557ZM198.355 8.91776C171.233 9.7393 146.992 11.6028 123.866 14.4412C101.55 17.1671 81.8346 20.6172 65.5404 25.0342C54.2294 28.1203 45.3689 31.4609 40.0472 35.1426C35.5237 38.2676 33.9854 41.3647 36.3825 44.4359C38.922 47.7399 46.1934 50.402 57.1141 52.5427C76.6346 56.3584 98.3077 59.5187 122.133 62.0234C133.841 63.2225 145.949 64.2024 158.993 64.6809C161.982 64.7715 164.834 64.8363 167.951 64.6861C185.978 63.8337 203.447 62.4643 220.357 60.5482C247.819 57.435 271.858 53.2956 291.653 47.9171C293.404 47.4511 294.882 46.9338 296.224 46.4205C301.59 44.2488 305.868 42.0199 309.33 39.726C317.585 34.2399 321.225 28.77 318.352 23.3125C317.485 21.5302 315.131 19.9395 310.611 18.5305C301.706 15.7087 290.376 13.491 276.484 11.852C252.24 8.94462 225.342 8.1298 198.355 8.91776ZM133.159 11.977C133.158 11.9474 133.021 11.8922 133.02 11.8626C131.937 11.9535 130.854 12.074 129.771 12.1649C117.458 13.4726 105.83 14.9975 94.6175 16.8065C70.1667 20.7801 49.8102 25.5231 34.9129 31.292C23.5051 35.7145 16.7177 40.328 16.3161 45.1699C15.8015 50.7856 23.5401 55.5084 41.0204 59.1763C50.0331 61.0467 60.7949 62.3919 72.4965 63.3838C95.0833 65.3024 119.123 65.845 144.356 65.4046C147.069 65.3551 149.645 65.2502 152.357 65.171C151.81 65.0388 151.13 64.9994 150.45 64.96C144.876 64.6486 139.169 64.4004 133.864 64.0219C100.81 61.5495 72.866 57.4464 48.0142 52.3343C43.9182 51.5056 40.9019 50.4676 38.155 49.3625C29.3609 45.678 28.1558 41.5942 32.3726 37.2632C36.9834 32.4762 47.3088 28.1742 61.7173 24.2568C79.8945 19.2515 102.315 15.4853 127.747 12.5796C129.642 12.3761 131.4 12.1766 133.159 11.977ZM271.749 54.2175C271.612 54.1622 271.339 54.1109 271.201 54.0556C244.343 59.2552 214.32 62.947 180.989 64.9573C147.794 66.9637 115.363 67.2291 83.6902 65.5758C90.2229 66.1851 97.0208 66.5793 104.088 66.9063C130.59 68.0883 157.724 67.7109 185.363 66.0149C212.19 64.3723 236.401 61.5021 257.857 57.2308C262.579 56.2632 267.028 55.2147 271.749 54.2175ZM324.133 30.7298C323.997 30.7337 323.997 30.7337 324.133 30.7298C324.001 30.8522 324.003 30.941 324.007 31.0594L324.143 31.0555C324.14 30.9666 324.136 30.8482 324.133 30.7298Z" fill="#406172" fill-opacity="0.7"/>
</svg>
