<svg width="111" height="111" viewBox="0 0 111 111" fill="none" xmlns="http://www.w3.org/2000/svg">
<path d="M40.0726 44.2846C39.8641 43.8302 39.8314 43.4711 39.6154 43.2401C33.6072 32.926 26.8181 23.2121 18.013 14.9073C14.0223 11.1491 9.5622 8.04631 4.95899 5.2072C3.77617 4.45161 2.55314 3.56042 1.41801 2.71693C1.02623 2.39057 0.594259 1.92862 0.385761 1.47417C0.305359 1.20299 0.368036 0.668136 0.599009 0.452147C0.829982 0.236159 1.36484 0.298835 1.62852 0.441914C13.1277 7.13667 23.5047 15.2704 31.3736 26.1391C35.3923 31.7329 39.2753 37.3669 42.6086 43.3852C42.9452 44.0229 43.4977 44.8917 44.0728 45.0899C51.5485 47.6673 57.6085 52.4346 62.9278 57.9378C71.1906 66.4034 79.0391 75.2131 87.0709 83.8947C87.5908 84.4043 88.1509 85.0496 89.0775 85.4386C87.8155 77.6999 86.418 70.0014 85.1159 62.1271C86.4642 61.9486 87.072 62.5059 87.5367 63.3269C88.0416 64.2835 88.6344 65.2878 88.956 66.3725C90.5892 72.3786 92.2225 78.3846 93.7202 84.4308C94.0343 85.739 94.0772 87.1276 94.0323 88.4685C93.8545 91.1026 91.9815 92.2479 89.5055 91.3595C84.689 89.5424 80.0081 87.6851 75.2871 85.6922C73.8733 85.1526 73.3684 84.196 73.7172 83.1338C74.1063 82.2072 75.1508 81.75 76.6123 82.2017C79.136 83.0022 81.5643 83.9786 84.3517 84.9222C84.0553 84.42 83.9749 84.1489 83.7589 83.9179C75.4484 75.5402 67.1857 67.0746 58.6919 58.825C56.1804 56.3245 53.0714 54.2961 50.2336 52.1874C49.0985 51.3439 47.6847 50.8043 46.1026 49.9458C46.2961 50.8473 46.4971 51.5252 46.6579 52.0675C48.2155 56.3259 49.3187 60.7928 49.5681 65.3653C49.7446 69.4432 49.1226 73.3152 47.0316 76.9591C46.276 78.1419 45.4727 79.4127 44.4534 80.4524C40.0023 85.091 33.5063 85.3207 28.4609 80.9902C22.1046 75.7207 17.2662 63.8797 22.9342 53.6438C26.0819 47.8428 31.1913 44.9266 37.7424 44.3855C38.4605 44.3201 39.2666 44.3023 40.0726 44.2846ZM44.5229 75.7116C46.2473 72.3239 46.8945 69.0344 46.6955 65.627C46.564 60.2082 45.0363 55.0559 43.0542 50.1121C42.6447 48.9797 41.8537 48.5505 40.7438 48.2896C34.8753 47.1531 28.3222 50.4237 25.6841 55.7048C22.1323 62.8794 24.1983 73.3299 30.3312 78.5918C34.4172 82.1743 39.2609 81.8444 42.8836 77.894C43.5363 77.1104 44.1488 76.1913 44.5229 75.7116Z" fill="#244252"/>
</svg>
