<svg width="316" height="298" viewBox="0 0 316 298" fill="none" xmlns="http://www.w3.org/2000/svg">
<g filter="url(#filter0_d_7_363)">
<path d="M182.19 124.213C183.223 124.746 184.004 125.062 184.744 125.475C192.096 128.908 199.35 132.3 206.702 135.733C209.101 136.818 209.405 138.871 207.618 140.759C207.049 141.323 206.519 141.789 205.892 142.217C194.619 150.706 182.494 157.375 169.42 162.184C158.401 166.122 147.691 170.979 137.137 176.014C131.223 178.841 125.252 181.531 119.182 184.181C113.524 186.657 108.001 189.643 102.73 192.844C97.2252 196.063 91.4486 198.832 85.672 201.601C84.125 202.337 82.3065 202.622 80.567 202.712C79.1016 202.686 77.325 202.307 76.0386 201.559C71.8683 198.961 71.124 194.913 74.2673 191.078C76.2908 188.605 78.781 186.662 81.1551 184.444C82.0378 183.667 83.0181 182.928 83.8033 182.111C96.6012 169.016 109.341 155.785 122.139 142.69C129.598 134.926 136.979 127.357 144.515 119.964C157.937 107.009 173.744 98.5391 191.857 94.1828C194.733 93.531 197.569 92.9768 200.541 92.3645C198.633 90.9101 197.676 90.7496 196.888 92.1335C195.816 91.6989 194.743 91.2643 193.67 90.8297C192.695 90.4347 191.817 90.0791 191.49 88.9247C191.355 88.4161 190.654 87.905 190.127 87.805C188 87.1703 185.735 86.5937 183.608 85.9591C182.886 85.7801 182.164 85.6011 181.481 85.3245C180.701 85.0084 179.293 85.1195 179.475 83.8306C179.638 82.3072 181.064 82.4307 182.118 82.6307C185.126 83.0542 188.133 83.4777 191.061 84.0963C199.222 85.8126 207.696 87.3153 215.812 90.2624C218.095 91.0735 220.298 92.0798 222.502 93.086C225.154 94.3873 225.673 96.1873 224.567 98.9182C223.856 100.674 222.776 101.939 221.247 102.909C218.504 104.637 215.858 106.403 213.097 107.896C203.715 112.837 194.275 117.642 184.894 122.584C184.032 123.03 183.268 123.515 182.19 124.213Z" fill="#2FAACF"/>
<path d="M153.503 127.994C161.06 130.577 168.617 133.16 176.071 135.702C178.577 136.597 181.04 137.595 183.545 138.49C185.085 139.114 186.397 140.004 186.636 141.774C186.834 143.646 185.902 145.061 184.335 145.98C183.015 146.879 181.531 147.592 180.089 148.203C146.911 163.441 114.019 179.153 81.9625 196.637C80.0044 197.637 78.0462 198.636 75.9855 199.593C74.6042 200.348 73.1425 200.712 71.7496 199.431C70.4594 198.191 70.5894 196.69 71.1715 195.253C72.7295 191.702 74.3901 188.193 76.1534 184.725C79.6995 178.036 83.3898 171.286 86.9359 164.597C90.9172 157.129 94.6517 149.68 98.7357 142.253C102.944 134.518 107.42 127.01 111.792 119.461C113.761 116.076 115.627 112.65 117.678 109.06C116.549 108.603 115.523 108.187 114.599 107.813C111.478 106.668 108.213 105.584 105.133 104.337C101.335 102.798 100.894 100.349 103.745 97.441C105.542 95.6597 107.441 93.9199 109.444 92.2217C112.106 90.074 114.974 88.0094 117.697 86.0059C125.765 79.9537 133.935 73.9432 141.9 67.8495C144.768 65.7849 147.362 65.2821 150.483 66.4269C155.493 68.2175 160.545 69.9055 165.555 71.6961C176.951 75.7152 188.45 79.776 199.805 83.8977C202.824 85.001 205.8 86.2068 208.674 87.3711C209.701 87.7869 210.625 88.1612 211.568 88.7823C214.85 90.7093 215.311 93.4054 212.544 96.108C211.304 97.3982 209.84 98.3584 208.334 99.4212C198.413 105.918 187.86 111.321 177.245 116.581C170.259 119.964 163.047 123.017 155.897 126.215C155.031 126.581 154.166 126.948 153.362 127.458C153.423 127.603 153.484 127.747 153.503 127.994Z" fill="#FBFBFB"/>
<path d="M117.884 109.143C116.652 108.644 115.728 108.27 114.702 107.854C111.622 106.607 108.357 105.523 105.278 104.276C101.685 102.82 101.141 100.329 103.847 97.4826C105.5 95.7623 107.358 94.1252 109.319 92.5297C112.126 90.3208 114.993 88.2563 117.758 86.1501C125.97 80.0369 134.141 74.0263 142.147 67.83C144.768 65.7849 147.464 65.3237 150.585 66.4685C155.493 68.2175 160.442 69.8639 165.35 71.6129C176.849 75.6737 188.306 79.837 199.908 83.9393C202.824 85.001 205.698 86.1652 208.572 87.3295C209.393 87.6622 210.214 87.9948 210.994 88.4301C215.139 90.5871 215.639 93.777 211.945 96.7018C208.911 99.1769 205.508 101.383 202.085 103.342C188.478 110.974 174.749 118.318 160.368 124.322C158.06 125.299 155.855 126.318 153.259 127.417C154.344 128.573 155.64 128.62 156.666 129.036C165.147 131.993 173.73 134.992 182.211 137.95C182.929 138.241 183.69 138.429 184.469 138.865C187.116 140.295 187.638 143.136 185.367 145.203C184.108 146.246 182.582 147.062 181.098 147.776C169.455 153.216 157.811 158.656 146.168 164.096C125.621 173.816 105.319 184.112 85.2604 194.986C82.498 196.496 79.6329 197.964 76.8094 199.33C76.1909 199.676 75.4698 199.982 74.8318 200.082C72.5878 200.607 70.8454 199.303 71.0612 197.001C71.2522 195.644 71.6901 194.268 72.3333 192.976C76.5031 184.747 80.7756 176.56 85.0064 168.476C89.7141 159.509 94.2776 150.603 99.1907 141.72C103.316 134.19 107.75 126.785 112.039 119.442C114.008 116.057 115.874 112.631 117.884 109.143ZM79.0016 191.853C79.1653 192.039 79.329 192.225 79.5343 192.308C111.324 174.596 144.338 159.172 177.336 142.906C175.18 142.032 173.579 141.264 171.895 140.702C163.784 138.013 155.733 135.469 147.621 132.78C146.759 132.55 145.937 132.218 145.158 131.782C142.142 130.083 141.908 127.12 144.612 124.87C145.83 123.929 147.314 123.216 148.797 122.503C157.329 118.55 166.044 115.03 174.453 110.79C184.677 105.611 194.511 99.9159 204.51 94.4069C205.273 93.999 206.016 93.3441 207.295 92.5477C204.728 91.5081 202.82 90.6154 200.828 89.928C183.805 83.8688 166.783 77.8095 149.802 71.6476C148.323 71.1681 147.458 71.5345 146.426 72.3115C138.358 78.3636 130.291 84.4158 122.223 90.4679C119.128 92.7989 116.033 95.1298 112.938 97.4607C112.236 98.0129 111.493 98.6678 110.522 99.589C111.754 100.088 112.678 100.462 113.499 100.795C116.517 101.898 119.577 102.899 122.41 104.166C125.037 105.349 125.584 107.244 124.195 109.788C122.018 113.686 119.697 117.645 117.418 121.501C112.652 129.727 107.825 137.809 103.264 146.118C96.2771 158.941 89.5371 171.745 82.7361 184.404C81.4912 186.887 80.2464 189.37 79.0016 191.853Z" fill="#2A4857"/>
</g>
<defs>
<filter id="filter0_d_7_363" x="0.748138" y="0.82666" width="314.365" height="296.886" filterUnits="userSpaceOnUse" color-interpolation-filters="sRGB">
<feFlood flood-opacity="0" result="BackgroundImageFix"/>
<feColorMatrix in="SourceAlpha" type="matrix" values="0 0 0 0 0 0 0 0 0 0 0 0 0 0 0 0 0 0 127 0" result="hardAlpha"/>
<feOffset dx="10" dy="15"/>
<feGaussianBlur stdDeviation="40"/>
<feComposite in2="hardAlpha" operator="out"/>
<feColorMatrix type="matrix" values="0 0 0 0 0 0 0 0 0 0 0 0 0 0 0 0 0 0 0.15 0"/>
<feBlend mode="normal" in2="BackgroundImageFix" result="effect1_dropShadow_7_363"/>
<feBlend mode="normal" in="SourceGraphic" in2="effect1_dropShadow_7_363" result="shape"/>
</filter>
</defs>
</svg>
