<svg width="651" height="452" viewBox="0 0 651 452" fill="none" xmlns="http://www.w3.org/2000/svg">
<path d="M585.77 447.834H542.648V448.159H585.77V447.834Z" fill="#EBEBEB"/>
<path d="M431.248 451.375H419.934V451.701H431.248V451.375Z" fill="#EBEBEB"/>
<path d="M541.346 435.751H516.36V436.077H541.346V435.751Z" fill="#EBEBEB"/>
<path d="M124.536 437.939H68.3029V438.264H124.536V437.939Z" fill="#EBEBEB"/>
<path d="M144.379 437.939H136.137V438.264H144.379V437.939Z" fill="#EBEBEB"/>
<path d="M293.145 443.433H171.174V443.759H293.145V443.433Z" fill="#EBEBEB"/>
<path d="M310.397 368.816H58.9806C57.0089 368.816 55.1179 368.032 53.7237 366.638C52.3294 365.244 51.5462 363.353 51.5462 361.381V7.97931C51.5633 6.01888 52.3542 4.14459 53.7465 2.76441C55.1389 1.38424 57.0201 0.60991 58.9806 0.609985H310.397C311.373 0.609985 312.34 0.802281 313.242 1.1759C314.144 1.54951 314.963 2.09713 315.654 2.78748C316.344 3.47783 316.892 4.29739 317.265 5.19938C317.639 6.10136 317.831 7.0681 317.831 8.0444V361.381C317.831 362.357 317.639 363.324 317.265 364.226C316.892 365.128 316.344 365.948 315.654 366.638C314.963 367.328 314.144 367.876 313.242 368.25C312.34 368.623 311.373 368.816 310.397 368.816ZM58.9806 0.870386C57.0962 0.873828 55.2901 1.62391 53.9576 2.95634C52.6252 4.28878 51.8751 6.09496 51.8717 7.97931V361.381C51.8751 363.266 52.6252 365.072 53.9576 366.404C55.2901 367.737 57.0962 368.487 58.9806 368.49H310.397C312.281 368.487 314.087 367.737 315.42 366.404C316.752 365.072 317.502 363.266 317.506 361.381V7.97931C317.502 6.09496 316.752 4.28878 315.42 2.95634C314.087 1.62391 312.281 0.873828 310.397 0.870386H58.9806Z" fill="#EBEBEB"/>
<path d="M592.019 368.816H340.603C338.631 368.816 336.74 368.032 335.346 366.638C333.952 365.244 333.169 363.353 333.169 361.381V7.97931C333.186 6.01888 333.977 4.14459 335.369 2.76441C336.762 1.38424 338.643 0.60991 340.603 0.609985H592.019C593.991 0.609985 595.882 1.39325 597.276 2.78748C598.671 4.1817 599.454 6.07267 599.454 8.0444V361.381C599.454 363.353 598.671 365.244 597.276 366.638C595.882 368.032 593.991 368.816 592.019 368.816ZM340.603 0.870386C338.719 0.873828 336.913 1.62391 335.58 2.95634C334.248 4.28878 333.498 6.09496 333.494 7.97931V361.381C333.498 363.266 334.248 365.072 335.58 366.404C336.913 367.737 338.719 368.487 340.603 368.49H592.019C593.904 368.487 595.71 367.737 597.042 366.404C598.375 365.072 599.125 363.266 599.128 361.381V7.97931C599.125 6.09496 598.375 4.28878 597.042 2.95634C595.71 1.62391 593.904 0.873828 592.019 0.870386H340.603Z" fill="#EBEBEB"/>
<path d="M651 426.885H0V427.21H651V426.885Z" fill="#EBEBEB"/>
<path d="M155.368 338.804C154.274 326.227 141.436 321.527 126.216 322.855C110.996 324.183 99.1864 331.045 100.254 343.622L155.368 338.804Z" fill="#F0F0F0"/>
<path d="M125.721 317.113C132.778 316.488 135.03 310.525 134.418 303.468C133.807 296.411 130.512 290.93 123.482 291.542C116.451 292.154 114.172 298.13 114.784 305.187C115.396 312.244 118.664 317.725 125.721 317.113Z" fill="#F0F0F0"/>
<path d="M442.81 70.9181C442.934 72.3139 442.64 73.7151 441.967 74.9442C441.294 76.1733 440.272 77.1752 439.029 77.823C437.787 78.4708 436.38 78.7355 434.987 78.5835C433.594 78.4316 432.277 77.8698 431.203 76.9693C430.13 76.0688 429.347 74.87 428.955 73.5247C428.563 72.1793 428.579 70.7479 429 69.4115C429.422 68.0751 430.23 66.8938 431.323 66.0171C432.417 65.1403 433.745 64.6075 435.141 64.4862C437.011 64.3236 438.869 64.9097 440.306 66.1156C441.744 67.3215 442.645 69.0488 442.81 70.9181Z" fill="#F5F5F5"/>
<path d="M481.961 67.4547C482.082 68.8477 481.787 70.2452 481.114 71.4707C480.441 72.6961 479.419 73.6944 478.178 74.3392C476.938 74.984 475.534 75.2465 474.144 75.0934C472.754 74.9403 471.441 74.3785 470.37 73.4791C469.3 72.5797 468.52 71.383 468.129 70.0404C467.739 68.6978 467.755 67.2695 468.177 65.9363C468.598 64.603 469.405 63.4245 470.496 62.5499C471.587 61.6753 472.913 61.1439 474.306 61.0228C476.173 60.8639 478.027 61.4516 479.462 62.6571C480.897 63.8627 481.796 65.5878 481.961 67.4547Z" fill="#F5F5F5"/>
<path d="M521.125 64.0304C521.249 65.4262 520.956 66.8274 520.283 68.0565C519.61 69.2856 518.587 70.2875 517.345 70.9353C516.102 71.5831 514.695 71.8478 513.302 71.6958C511.909 71.5439 510.592 70.9821 509.519 70.0816C508.445 69.1811 507.663 67.9823 507.27 66.637C506.878 65.2916 506.894 63.8602 507.315 62.5238C507.737 61.1874 508.546 60.0061 509.639 59.1294C510.732 58.2526 512.061 57.7198 513.457 57.5985C515.326 57.4359 517.184 58.022 518.622 59.2279C520.06 60.4338 520.96 62.1611 521.125 64.0304Z" fill="#F5F5F5"/>
<path d="M446.3 110.785C446.423 112.181 446.13 113.582 445.457 114.811C444.784 116.041 443.761 117.042 442.519 117.69C441.276 118.338 439.869 118.603 438.476 118.451C437.083 118.299 435.766 117.737 434.693 116.836C433.619 115.936 432.837 114.737 432.444 113.392C432.052 112.047 432.068 110.615 432.49 109.279C432.911 107.942 433.72 106.761 434.813 105.884C435.906 105.008 437.235 104.475 438.631 104.353C440.5 104.191 442.358 104.777 443.796 105.983C445.234 107.189 446.134 108.916 446.3 110.785Z" fill="#F5F5F5"/>
<path d="M485.451 107.374C485.572 108.767 485.277 110.165 484.603 111.39C483.93 112.615 482.908 113.614 481.668 114.258C480.427 114.903 479.023 115.166 477.633 115.013C476.243 114.86 474.93 114.298 473.86 113.398C472.789 112.499 472.009 111.302 471.619 109.96C471.228 108.617 471.245 107.189 471.666 105.856C472.087 104.522 472.894 103.344 473.985 102.469C475.076 101.595 476.402 101.063 477.795 100.942C478.72 100.862 479.652 100.964 480.537 101.244C481.423 101.524 482.244 101.975 482.955 102.572C483.666 103.17 484.252 103.901 484.68 104.725C485.109 105.549 485.37 106.449 485.451 107.374Z" fill="#F5F5F5"/>
<path d="M524.615 103.937C524.738 105.333 524.445 106.734 523.772 107.963C523.099 109.192 522.077 110.194 520.834 110.842C519.591 111.49 518.185 111.754 516.791 111.602C515.398 111.45 514.082 110.888 513.008 109.988C511.934 109.087 511.152 107.889 510.76 106.543C510.368 105.198 510.383 103.767 510.805 102.43C511.226 101.094 512.035 99.9125 513.128 99.0357C514.221 98.159 515.55 97.6262 516.946 97.5048C518.816 97.3423 520.673 97.9283 522.111 99.1343C523.549 100.34 524.449 102.067 524.615 103.937Z" fill="#F5F5F5"/>
<path d="M449.789 150.705C449.91 152.098 449.615 153.495 448.942 154.721C448.268 155.946 447.247 156.944 446.006 157.589C444.765 158.234 443.361 158.496 441.971 158.343C440.582 158.19 439.268 157.628 438.198 156.729C437.127 155.83 436.347 154.633 435.957 153.29C435.566 151.948 435.583 150.519 436.004 149.186C436.425 147.853 437.232 146.674 438.323 145.8C439.414 144.925 440.74 144.394 442.133 144.273C443.058 144.19 443.991 144.292 444.877 144.571C445.763 144.85 446.585 145.301 447.297 145.899C448.008 146.496 448.594 147.228 449.022 148.053C449.45 148.878 449.71 149.779 449.789 150.705Z" fill="#F5F5F5"/>
<path d="M488.953 147.267C489.077 148.663 488.783 150.064 488.11 151.293C487.437 152.523 486.415 153.524 485.172 154.172C483.93 154.82 482.523 155.085 481.13 154.933C479.737 154.781 478.42 154.219 477.346 153.319C476.273 152.418 475.49 151.219 475.098 149.874C474.706 148.529 474.722 147.097 475.143 145.761C475.565 144.424 476.373 143.243 477.466 142.366C478.56 141.49 479.888 140.957 481.284 140.835C483.154 140.673 485.012 141.259 486.449 142.465C487.887 143.671 488.788 145.398 488.953 147.267Z" fill="#F5F5F5"/>
<path d="M528.104 143.83C528.228 145.226 527.934 146.627 527.261 147.856C526.588 149.085 525.566 150.087 524.323 150.735C523.081 151.383 521.674 151.647 520.281 151.496C518.888 151.344 517.571 150.782 516.497 149.881C515.424 148.981 514.641 147.782 514.249 146.437C513.857 145.091 513.873 143.66 514.294 142.323C514.716 140.987 515.524 139.806 516.618 138.929C517.711 138.052 519.039 137.52 520.435 137.398C522.305 137.236 524.163 137.822 525.6 139.028C527.038 140.234 527.939 141.961 528.104 143.83Z" fill="#F5F5F5"/>
<path d="M519.641 146.148L439.204 153.178L510.527 66.5173L437.472 72.9101C437.268 72.9297 437.062 72.9083 436.867 72.8472C436.671 72.7861 436.49 72.6865 436.333 72.5543C436.177 72.4221 436.048 72.2599 435.955 72.0772C435.862 71.8946 435.807 71.6953 435.792 71.4909C435.756 71.0817 435.884 70.675 436.148 70.36C436.411 70.0451 436.789 69.8477 437.199 69.8113L517.649 62.7805L446.313 149.442L519.394 143.049C519.806 143.016 520.214 143.147 520.53 143.412C520.847 143.678 521.047 144.057 521.086 144.468C521.102 144.673 521.078 144.88 521.014 145.075C520.949 145.271 520.847 145.452 520.713 145.608C520.579 145.764 520.415 145.892 520.231 145.985C520.047 146.077 519.847 146.133 519.641 146.148Z" fill="#E6E6E6"/>
<path d="M520.878 300.864C520.754 300.485 520.522 300.151 520.209 299.903C519.896 299.655 519.518 299.505 519.12 299.471C515.623 299.31 512.312 297.847 509.837 295.37C506.621 292.128 504.733 287.219 504.421 281.386C504.391 280.86 504.162 280.365 503.779 280.002C503.397 279.639 502.891 279.436 502.364 279.433C502.079 279.435 501.797 279.494 501.536 279.607C501.274 279.72 501.039 279.885 500.843 280.092C500.647 280.299 500.495 280.543 500.396 280.811C500.297 281.078 500.253 281.362 500.267 281.647C500.632 288.495 502.95 294.354 506.895 298.299C509.984 301.394 514.083 303.274 518.443 303.598H518.743C519.085 303.625 519.429 303.566 519.743 303.427C520.057 303.288 520.332 303.074 520.543 302.804C520.754 302.533 520.896 302.214 520.954 301.876C521.012 301.538 520.986 301.19 520.878 300.864Z" fill="#F0F0F0"/>
<path d="M516.712 325.85C499.46 324.339 487.013 312.582 483.081 294.224C483.018 293.948 483.012 293.663 483.063 293.385C483.114 293.107 483.22 292.842 483.376 292.606C483.531 292.37 483.733 292.168 483.969 292.012C484.205 291.856 484.47 291.749 484.748 291.698C485.275 291.605 485.817 291.717 486.263 292.013C486.709 292.309 487.024 292.765 487.143 293.287C490.672 309.783 501.739 320.355 517.089 321.696C533.911 323.168 551.97 312.101 555.212 284.212C555.268 283.668 555.535 283.168 555.957 282.82C556.378 282.471 556.92 282.303 557.464 282.35C557.74 282.373 558.009 282.45 558.254 282.579C558.499 282.707 558.716 282.883 558.892 283.097C559.068 283.31 559.2 283.557 559.279 283.822C559.358 284.088 559.383 284.366 559.352 284.641C556.24 310.942 538.95 327.79 516.712 325.85Z" fill="#F0F0F0"/>
<path d="M484.162 275.931C483.886 275.908 483.617 275.83 483.372 275.702C483.127 275.574 482.91 275.398 482.734 275.184C482.558 274.97 482.426 274.724 482.347 274.458C482.268 274.193 482.243 273.915 482.274 273.639C485.373 247.339 502.663 230.478 524.888 232.431C544.418 234.137 557.503 248.719 559.548 270.684C559.569 270.96 559.535 271.237 559.448 271.499C559.361 271.762 559.222 272.005 559.041 272.213C558.859 272.421 558.637 272.592 558.389 272.714C558.141 272.836 557.871 272.907 557.595 272.923C557.051 272.949 556.519 272.762 556.111 272.402C555.703 272.043 555.451 271.539 555.407 270.996C553.519 251.206 541.84 238.095 524.537 236.584C507.78 235.113 489.643 246.167 486.414 274.03C486.391 274.303 486.315 274.568 486.189 274.811C486.063 275.055 485.891 275.271 485.682 275.447C485.473 275.624 485.231 275.757 484.97 275.84C484.709 275.923 484.434 275.954 484.162 275.931Z" fill="#F0F0F0"/>
<path d="M517.558 314.691C514.465 314.443 511.434 313.687 508.587 312.452C508.322 312.336 508.083 312.166 507.887 311.952C507.691 311.739 507.541 311.488 507.446 311.214C507.352 310.94 507.316 310.649 507.34 310.36C507.364 310.071 507.447 309.79 507.585 309.536C507.829 309.088 508.23 308.747 508.711 308.579C509.192 308.41 509.719 308.426 510.189 308.624C512.903 309.79 515.805 310.46 518.756 310.603C531.502 311.332 544.965 302.296 546.293 280.475C547.1 267.025 542.491 256.167 533.898 250.972C533.453 250.702 533.125 250.277 532.978 249.778C532.831 249.279 532.876 248.744 533.104 248.276C533.233 248.018 533.415 247.789 533.636 247.604C533.858 247.418 534.115 247.281 534.392 247.199C534.669 247.117 534.96 247.093 535.247 247.128C535.534 247.164 535.81 247.258 536.059 247.404C546.02 253.419 551.358 265.632 550.447 280.722C549.145 301.763 536.046 315.772 518.508 314.77L517.558 314.691Z" fill="#F0F0F0"/>
<path d="M499.017 301.711C498.778 301.873 498.507 301.984 498.223 302.037C497.938 302.09 497.646 302.084 497.364 302.02C497.082 301.955 496.816 301.833 496.583 301.661C496.35 301.489 496.155 301.271 496.01 301.02C492.151 293.845 490.455 285.704 491.127 277.584C492.351 257.443 504.421 243.732 520.813 243.498C521.102 243.492 521.388 243.546 521.655 243.656C521.922 243.767 522.163 243.931 522.364 244.138C522.564 244.346 522.72 244.593 522.82 244.864C522.921 245.135 522.964 245.423 522.948 245.712C522.916 246.232 522.689 246.722 522.313 247.083C521.937 247.445 521.439 247.652 520.917 247.665C508.756 247.899 496.544 257.091 495.294 277.832C494.662 285.161 496.173 292.516 499.642 299.002C499.903 299.453 499.984 299.985 499.868 300.492C499.752 301 499.448 301.444 499.017 301.737V301.711Z" fill="#F0F0F0"/>
<path d="M527.479 300.07C527.282 299.607 527.259 299.088 527.414 298.609C527.57 298.131 527.894 297.725 528.326 297.466C533.807 294.172 537.166 287.258 537.218 278.913C537.218 272.233 535.33 266.583 531.763 263.002C530.377 261.629 528.726 260.554 526.911 259.842C525.095 259.13 523.153 258.797 521.204 258.862C514.785 258.862 509.577 262.39 506.699 268.588C506.477 269.059 506.086 269.429 505.604 269.624C505.121 269.82 504.582 269.826 504.095 269.642C503.824 269.542 503.576 269.386 503.368 269.185C503.159 268.983 502.995 268.741 502.885 268.473C502.774 268.205 502.721 267.918 502.728 267.628C502.735 267.338 502.801 267.053 502.924 266.791C506.491 259.2 513.17 254.708 521.152 254.695C523.652 254.631 526.139 255.073 528.464 255.995C530.789 256.917 532.903 258.299 534.679 260.06C539.041 264.434 541.411 271.14 541.359 278.952C541.28 288.782 537.14 297.036 530.396 301.086C530.14 301.225 529.859 301.309 529.569 301.333C529.279 301.357 528.987 301.32 528.712 301.225C528.438 301.129 528.186 300.977 527.974 300.778C527.761 300.579 527.593 300.338 527.479 300.07Z" fill="#F0F0F0"/>
<path d="M512.48 284.693C512.202 284.807 511.903 284.859 511.603 284.845C511.303 284.832 511.009 284.754 510.742 284.617C510.475 284.48 510.241 284.286 510.055 284.05C509.87 283.814 509.738 283.54 509.668 283.248C509.525 282.688 509.42 282.102 509.329 281.504C508.145 273.692 512.337 266.934 519.068 265.723C520.636 265.382 522.261 265.413 523.814 265.814C525.368 266.214 526.806 266.972 528.013 268.028C528.24 268.229 528.418 268.479 528.534 268.759C528.651 269.039 528.703 269.341 528.687 269.644C528.671 269.947 528.586 270.242 528.441 270.508C528.295 270.773 528.091 271.003 527.844 271.179L527.714 271.27C527.323 271.541 526.851 271.67 526.377 271.635C525.903 271.599 525.455 271.401 525.11 271.075C524.379 270.458 523.516 270.019 522.587 269.793C521.659 269.568 520.69 269.56 519.758 269.773C514.628 270.697 512.675 276.035 513.405 280.826C513.483 281.295 513.561 281.751 513.678 282.128C513.804 282.619 513.748 283.138 513.52 283.59C513.293 284.043 512.91 284.398 512.441 284.589L512.48 284.693Z" fill="#F0F0F0"/>
<path d="M519.368 292.714C519.039 292.682 518.725 292.566 518.453 292.379C518.182 292.191 517.963 291.937 517.817 291.641C517.671 291.346 517.603 291.017 517.619 290.688C517.635 290.358 517.735 290.038 517.91 289.758L518.092 289.472C518.279 289.173 518.544 288.932 518.858 288.773C519.173 288.615 519.525 288.546 519.876 288.573C520.529 288.611 521.184 288.571 521.829 288.456C526.307 287.649 528.339 283.483 528.339 279.238C528.326 278.728 528.498 278.231 528.824 277.838C529.149 277.446 529.606 277.184 530.109 277.103C530.398 277.059 530.693 277.076 530.975 277.153C531.257 277.23 531.519 277.366 531.745 277.552C531.971 277.737 532.156 277.968 532.287 278.229C532.418 278.491 532.492 278.777 532.505 279.069C532.622 285.865 528.599 291.477 522.571 292.558C521.515 292.753 520.438 292.805 519.368 292.714Z" fill="#F0F0F0"/>
<path d="M520.292 285.019C519.241 284.93 518.243 284.515 517.44 283.831C516.637 283.147 516.068 282.228 515.813 281.204C515.74 280.915 515.736 280.613 515.803 280.322C515.87 280.032 516.005 279.761 516.197 279.533C516.39 279.306 516.633 279.127 516.909 279.012C517.184 278.897 517.482 278.85 517.779 278.873H518.261C518.626 278.912 518.971 279.055 519.255 279.286C519.54 279.517 519.751 279.826 519.863 280.175C519.908 280.357 520.009 280.52 520.151 280.641C520.294 280.762 520.47 280.836 520.657 280.852C521.659 280.944 521.829 279.55 521.855 279.212C521.915 278.705 521.82 278.192 521.581 277.741C521.222 277.306 521.036 276.754 521.06 276.191C521.093 275.778 521.249 275.383 521.508 275.059C521.766 274.734 522.116 274.494 522.512 274.37C522.908 274.245 523.332 274.242 523.73 274.36C524.128 274.478 524.481 274.712 524.745 275.033C525.761 276.316 526.229 277.949 526.047 279.577C525.709 283.001 523.3 285.279 520.292 285.019Z" fill="#F0F0F0"/>
<path d="M481.128 238.42C480.856 238.397 480.591 238.321 480.348 238.195C480.106 238.069 479.891 237.897 479.715 237.687C479.54 237.478 479.407 237.236 479.326 236.975C479.244 236.714 479.215 236.44 479.24 236.168L480.816 218.109L498.874 219.698C499.147 219.72 499.412 219.797 499.654 219.923C499.897 220.049 500.112 220.221 500.287 220.431C500.463 220.64 500.595 220.882 500.677 221.143C500.758 221.404 500.787 221.678 500.762 221.95C500.739 222.223 500.663 222.488 500.537 222.731C500.411 222.975 500.239 223.191 500.03 223.367C499.821 223.544 499.579 223.677 499.318 223.76C499.057 223.843 498.783 223.874 498.51 223.851L484.604 222.627L483.394 236.532C483.369 236.805 483.291 237.07 483.164 237.313C483.037 237.556 482.863 237.771 482.652 237.946C482.442 238.122 482.199 238.254 481.937 238.335C481.676 238.416 481.401 238.445 481.128 238.42Z" fill="#F0F0F0"/>
<path d="M566.969 245.933C566.697 245.91 566.432 245.833 566.189 245.708C565.947 245.582 565.731 245.409 565.556 245.2C565.38 244.99 565.248 244.748 565.167 244.487C565.085 244.227 565.056 243.952 565.081 243.68L566.292 229.775L552.387 228.564C552.114 228.54 551.848 228.462 551.606 228.334C551.363 228.207 551.148 228.033 550.973 227.823C550.797 227.612 550.665 227.37 550.584 227.108C550.503 226.846 550.474 226.571 550.499 226.299C550.522 226.026 550.598 225.761 550.724 225.519C550.85 225.276 551.022 225.061 551.232 224.886C551.441 224.71 551.683 224.578 551.944 224.496C552.205 224.415 552.479 224.386 552.751 224.411L570.81 225.986L569.234 244.084C569.175 244.628 568.904 245.127 568.481 245.473C568.057 245.819 567.514 245.984 566.969 245.933Z" fill="#F0F0F0"/>
<path d="M560.576 343.036L542.517 341.461C542.244 341.436 541.979 341.358 541.737 341.231C541.494 341.104 541.279 340.93 541.103 340.719C540.928 340.509 540.796 340.266 540.715 340.004C540.633 339.743 540.604 339.468 540.629 339.195C540.652 338.923 540.729 338.658 540.855 338.415C540.981 338.173 541.153 337.958 541.363 337.782C541.572 337.607 541.814 337.474 542.075 337.393C542.335 337.311 542.61 337.282 542.882 337.307L556.787 338.518L557.998 324.626C558.021 324.352 558.098 324.085 558.224 323.841C558.351 323.597 558.524 323.38 558.735 323.204C558.946 323.027 559.189 322.894 559.451 322.811C559.714 322.729 559.99 322.7 560.264 322.725C560.536 322.748 560.801 322.824 561.043 322.95C561.286 323.076 561.501 323.249 561.677 323.458C561.852 323.667 561.984 323.909 562.066 324.17C562.147 324.431 562.176 324.705 562.151 324.977L560.576 343.036Z" fill="#F0F0F0"/>
<path d="M488.641 336.708L470.582 335.12L472.157 317.074C472.21 316.524 472.477 316.016 472.901 315.66C473.325 315.305 473.871 315.13 474.423 315.173C474.696 315.198 474.961 315.276 475.203 315.403C475.446 315.53 475.661 315.704 475.837 315.914C476.012 316.125 476.144 316.368 476.225 316.629C476.307 316.891 476.336 317.166 476.311 317.439L475.1 331.318L488.992 332.542C489.265 332.565 489.53 332.641 489.774 332.767C490.017 332.893 490.233 333.065 490.409 333.274C490.586 333.483 490.72 333.725 490.803 333.986C490.885 334.247 490.916 334.522 490.893 334.794C490.847 335.346 490.584 335.857 490.162 336.216C489.74 336.575 489.193 336.752 488.641 336.708Z" fill="#F0F0F0"/>
<path d="M97.2985 297.635C96.9592 297.661 96.6234 297.552 96.3631 297.333C96.1027 297.114 95.9384 296.802 95.9053 296.463L94.9418 285.37L106.035 284.394C106.374 284.368 106.71 284.477 106.97 284.696C107.231 284.915 107.395 285.227 107.428 285.566C107.45 285.903 107.34 286.235 107.121 286.493C106.903 286.75 106.592 286.913 106.256 286.946L97.7151 287.701L98.4572 296.242C98.4829 296.579 98.3762 296.913 98.16 297.173C97.9437 297.433 97.6347 297.599 97.2985 297.635Z" fill="#E0E0E0"/>
<path d="M150.082 293.013C149.744 293.039 149.41 292.932 149.15 292.716C148.89 292.5 148.725 292.191 148.688 291.854L147.946 283.3L139.392 284.055C139.053 284.081 138.717 283.972 138.457 283.753C138.196 283.534 138.032 283.222 137.999 282.884C137.974 282.544 138.082 282.209 138.301 281.948C138.52 281.688 138.832 281.524 139.171 281.49L150.264 280.527L151.24 291.62C151.266 291.957 151.159 292.291 150.943 292.551C150.727 292.811 150.418 292.977 150.082 293.013Z" fill="#E0E0E0"/>
<path d="M155.55 340.81L144.444 341.786C144.105 341.812 143.769 341.703 143.508 341.484C143.248 341.265 143.084 340.953 143.051 340.614C143.025 340.275 143.134 339.939 143.353 339.679C143.572 339.419 143.884 339.254 144.223 339.221L152.764 338.479L152.022 329.938C151.996 329.601 152.103 329.267 152.319 329.007C152.535 328.747 152.844 328.581 153.18 328.545C153.518 328.519 153.852 328.626 154.112 328.842C154.372 329.058 154.537 329.367 154.573 329.704L155.55 340.81Z" fill="#E0E0E0"/>
<path d="M111.308 344.677L100.254 345.64L99.2775 334.534C99.2556 334.197 99.3656 333.864 99.5842 333.607C99.8029 333.349 100.113 333.187 100.449 333.154C100.784 333.132 101.115 333.24 101.372 333.456C101.629 333.672 101.793 333.979 101.829 334.313L102.585 342.867L111.126 342.112C111.465 342.086 111.801 342.195 112.061 342.414C112.321 342.633 112.486 342.945 112.519 343.283C112.531 343.454 112.51 343.626 112.455 343.789C112.401 343.952 112.315 344.102 112.203 344.232C112.09 344.361 111.953 344.467 111.8 344.543C111.646 344.62 111.479 344.665 111.308 344.677Z" fill="#E0E0E0"/>
<path d="M149.183 112.582L106.764 116.228L105.892 106.293C105.828 101.552 107.559 96.9621 110.738 93.4441C113.918 89.926 118.309 87.7402 123.033 87.325C127.756 86.9098 132.462 88.296 136.206 91.2055C139.95 94.115 142.456 98.3326 143.22 103.012L143.715 108.793L149.847 108.259L149.339 102.478C149.054 99.2179 148.129 96.0454 146.617 93.1423C145.106 90.2391 143.037 87.6622 140.53 85.5585C138.022 83.4548 135.125 81.8656 132.003 80.8816C128.881 79.8976 125.597 79.5381 122.336 79.8237C115.751 80.4003 109.665 83.5693 105.416 88.6334C103.312 91.1409 101.723 94.0383 100.739 97.1599C99.7551 100.282 99.3956 103.567 99.6811 106.827L100.553 116.827C98.138 117.299 95.9827 118.648 94.5021 120.615C93.0215 122.581 92.3202 125.025 92.5331 127.477L95.5668 162.162C95.675 163.471 96.0408 164.746 96.643 165.913C97.2453 167.081 98.0723 168.118 99.0764 168.965C100.081 169.811 101.242 170.452 102.494 170.848C103.747 171.245 105.065 171.39 106.373 171.276L153.935 167.123C155.245 167.015 156.519 166.649 157.687 166.047C158.854 165.444 159.891 164.617 160.738 163.613C161.585 162.609 162.225 161.448 162.622 160.195C163.018 158.943 163.164 157.625 163.049 156.316L160.016 121.631C159.9 120.325 159.527 119.055 158.92 117.893C158.312 116.732 157.482 115.701 156.476 114.861C155.469 114.02 154.307 113.386 153.056 112.995C151.805 112.604 150.489 112.464 149.183 112.582ZM131.137 139.312L132.179 151.251C132.249 151.732 132.22 152.222 132.095 152.691C131.969 153.16 131.749 153.598 131.447 153.979C131.146 154.36 130.77 154.675 130.343 154.906C129.916 155.137 129.446 155.277 128.962 155.32C128.478 155.363 127.991 155.306 127.53 155.154C127.069 155.001 126.644 154.757 126.28 154.434C125.917 154.112 125.624 153.719 125.418 153.279C125.212 152.839 125.098 152.362 125.083 151.876L124.042 139.924C122.967 139.264 122.129 138.283 121.645 137.119C121.161 135.955 121.057 134.668 121.347 133.441C121.638 132.215 122.308 131.111 123.262 130.287C124.216 129.463 125.405 128.962 126.661 128.853C127.917 128.745 129.175 129.036 130.256 129.684C131.337 130.332 132.186 131.305 132.682 132.464C133.178 133.623 133.296 134.908 133.018 136.138C132.741 137.368 132.083 138.478 131.137 139.312Z" fill="#EBEBEB"/>
<path d="M221.913 132.62L217.629 125.602C215.47 125.909 213.278 125.909 211.119 125.602L206.823 132.594L206.002 132.372C203.218 131.639 200.546 130.531 198.06 129.078L197.331 128.662L199.141 121.058C199.176 120.91 199.24 120.771 199.329 120.649C199.418 120.526 199.531 120.423 199.661 120.344C199.79 120.265 199.934 120.213 200.084 120.19C200.234 120.168 200.387 120.175 200.534 120.212C200.829 120.283 201.084 120.468 201.243 120.727C201.401 120.985 201.451 121.297 201.38 121.592L199.948 127.516C201.798 128.524 203.749 129.336 205.768 129.938L209.96 123.089L210.729 123.219C213.161 123.61 215.64 123.61 218.072 123.219L218.827 123.089L223.02 129.938C225.04 129.34 226.991 128.528 228.84 127.516L226.978 119.704L227.603 119.248C229.299 118.025 230.819 116.575 232.121 114.939C232.301 114.703 232.567 114.547 232.861 114.503C233.155 114.459 233.454 114.531 233.696 114.704C233.823 114.792 233.93 114.905 234.011 115.036C234.093 115.166 234.147 115.312 234.17 115.465C234.193 115.617 234.185 115.772 234.146 115.922C234.107 116.071 234.038 116.21 233.943 116.332C232.664 117.947 231.19 119.399 229.556 120.654L231.47 128.636L230.727 129.052C228.245 130.502 225.578 131.61 222.798 132.346L221.913 132.62ZM195.586 117.334C195.235 116.931 194.883 116.501 194.545 116.032L186.564 117.946L186.134 117.217C184.692 114.726 183.585 112.055 182.84 109.275L182.632 108.455L189.623 104.158C189.316 101.999 189.316 99.8071 189.623 97.648L182.632 93.3644L182.84 92.5311C183.585 89.7549 184.692 87.0889 186.134 84.602L186.564 83.8598L194.545 85.7738C195.877 84.03 197.436 82.4712 199.18 81.1386L197.735 75.0974C197.664 74.8021 197.714 74.491 197.872 74.2322C198.031 73.9735 198.286 73.7883 198.581 73.7172C198.726 73.6825 198.877 73.6768 199.025 73.7006C199.172 73.7244 199.314 73.7771 199.441 73.8558C199.568 73.9344 199.678 74.0375 199.765 74.159C199.852 74.2804 199.914 74.4179 199.948 74.5635L201.758 82.0891L201.133 82.5318C199.127 83.9751 197.368 85.7339 195.925 87.7398L195.469 88.3647L187.657 86.5029C186.645 88.3509 185.833 90.302 185.236 92.3228L192.071 96.5153L191.954 97.2704C191.519 99.6989 191.519 102.185 191.954 104.614L192.071 105.382L185.236 109.574C185.835 111.59 186.647 113.537 187.657 115.381L195.469 113.519L195.925 114.144C196.33 114.735 196.764 115.304 197.227 115.85C197.428 116.061 197.539 116.34 197.539 116.631C197.539 116.922 197.428 117.202 197.227 117.412C197.116 117.519 196.985 117.601 196.841 117.655C196.697 117.709 196.543 117.733 196.39 117.725C196.236 117.718 196.086 117.68 195.948 117.612C195.81 117.545 195.687 117.451 195.586 117.334ZM242.12 117.972L239.177 117.269C238.882 117.198 238.627 117.013 238.469 116.754C238.31 116.495 238.261 116.184 238.331 115.889C238.402 115.594 238.587 115.339 238.846 115.18C239.105 115.022 239.416 114.972 239.711 115.043L241.013 115.342C242.019 113.497 242.827 111.551 243.422 109.535L236.586 105.343L236.717 104.575C237.151 102.146 237.151 99.6598 236.717 97.2314L236.586 96.4762L243.422 92.2838C242.829 90.2634 242.022 88.3123 241.013 86.4638L233.201 88.3257L232.759 87.7007C231.312 85.6978 229.553 83.9395 227.551 82.4927L226.926 82.05L228.787 74.238C226.939 73.2297 224.988 72.4222 222.967 71.8293L218.736 78.7299L217.981 78.5997C215.549 78.209 213.07 78.209 210.638 78.5997L209.869 78.7299L205.716 71.8554L204.935 72.0897C204.657 72.1814 204.354 72.1605 204.091 72.0315C203.828 71.9025 203.626 71.6757 203.529 71.3997C203.475 71.257 203.45 71.1051 203.456 70.9528C203.461 70.8004 203.498 70.6508 203.562 70.5126C203.626 70.3743 203.717 70.2503 203.83 70.1478C203.943 70.0452 204.075 69.9662 204.219 69.9154C204.792 69.7331 205.377 69.5639 205.95 69.4076L206.771 69.1863L211.067 76.191C213.225 75.8702 215.419 75.8702 217.577 76.191L221.861 69.1863L222.694 69.4076C225.471 70.1492 228.138 71.257 230.623 72.7017L231.365 73.1313L229.451 81.1126C231.198 82.4422 232.757 84.0013 234.087 85.7477L242.068 83.8338L242.497 84.5759C243.944 87.0601 245.052 89.7269 245.792 92.5051L246.013 93.3384L239.008 97.622C239.333 99.7798 239.333 101.974 239.008 104.132L246.013 108.429L245.792 109.249C245.052 112.031 243.945 114.702 242.497 117.191L242.12 117.972ZM214.023 112.061C211.186 111.949 208.495 110.771 206.488 108.764C204.48 106.756 203.302 104.066 203.19 101.229C203.113 98.4381 204.083 95.7197 205.909 93.6088C207.736 91.4978 210.287 90.1473 213.059 89.823C213.222 89.8027 213.387 89.8172 213.544 89.8655C213.7 89.9137 213.845 89.9947 213.968 90.103C214.091 90.2113 214.19 90.3444 214.258 90.4937C214.325 90.6429 214.361 90.8048 214.361 90.9687C214.36 91.2457 214.257 91.5125 214.072 91.7188C213.888 91.9251 213.634 92.0566 213.359 92.0885C211.429 92.3085 209.626 93.1558 208.224 94.5003C206.823 95.8448 205.902 97.6121 205.603 99.5308C205.303 101.449 205.642 103.413 206.567 105.121C207.492 106.828 208.952 108.185 210.722 108.982C212.493 109.78 214.476 109.974 216.368 109.535C218.259 109.096 219.955 108.048 221.193 106.553C222.431 105.057 223.144 103.196 223.223 101.256C223.301 99.3152 222.74 97.4029 221.626 95.8122C221.466 95.5868 221.395 95.3094 221.429 95.0346C221.463 94.7598 221.598 94.5077 221.809 94.3279C221.93 94.22 222.073 94.1391 222.228 94.0907C222.384 94.0423 222.547 94.0275 222.709 94.0472C222.87 94.0669 223.025 94.1207 223.164 94.205C223.303 94.2893 223.422 94.4022 223.514 94.5362C224.699 96.2306 225.388 98.2211 225.506 100.285C225.625 102.349 225.166 104.405 224.183 106.223C223.199 108.042 221.729 109.551 219.937 110.582C218.145 111.613 216.102 112.125 214.036 112.061H214.023Z" fill="#F0F0F0"/>
<path d="M141.02 227.926L138.246 223.408C136.844 223.617 135.418 223.617 134.015 223.408L131.242 227.926L130.708 227.783C128.91 227.309 127.185 226.595 125.578 225.661L125.109 225.387L126.281 220.466C126.327 220.277 126.446 220.113 126.612 220.011C126.777 219.909 126.977 219.876 127.166 219.919C127.261 219.942 127.351 219.983 127.43 220.041C127.509 220.098 127.576 220.171 127.626 220.254C127.677 220.338 127.711 220.431 127.726 220.527C127.741 220.624 127.736 220.722 127.713 220.817L126.802 224.645C127.996 225.3 129.258 225.823 130.565 226.208L133.273 221.794L133.754 221.872C135.328 222.132 136.933 222.132 138.507 221.872L138.989 221.794L141.71 226.208C143.009 225.815 144.266 225.292 145.459 224.645L144.262 219.619L144.665 219.32C145.76 218.533 146.741 217.6 147.582 216.547C147.696 216.392 147.867 216.289 148.057 216.259C148.248 216.23 148.442 216.277 148.597 216.39C148.677 216.447 148.745 216.52 148.797 216.603C148.849 216.686 148.884 216.779 148.899 216.876C148.915 216.973 148.911 217.072 148.889 217.167C148.866 217.263 148.824 217.353 148.767 217.432C147.937 218.476 146.984 219.416 145.928 220.231L147.23 225.439L146.748 225.713C145.142 226.649 143.417 227.363 141.619 227.835L141.02 227.926ZM124.016 218.044L123.338 217.224L118.13 218.448L117.857 217.979C116.94 216.365 116.244 214.635 115.787 212.836L115.644 212.302L120.162 209.529C119.953 208.126 119.953 206.7 120.162 205.297L115.644 202.524L115.787 201.99C116.259 200.192 116.973 198.466 117.909 196.86L118.183 196.379L123.391 197.681C124.228 196.541 125.203 195.509 126.294 194.608L125.37 190.702C125.346 190.608 125.342 190.51 125.357 190.414C125.372 190.319 125.406 190.227 125.457 190.145C125.508 190.062 125.575 189.991 125.654 189.934C125.733 189.878 125.822 189.838 125.916 189.817C126.106 189.773 126.305 189.807 126.471 189.909C126.637 190.011 126.755 190.174 126.802 190.363L127.974 195.22L127.557 195.519C126.267 196.445 125.136 197.575 124.211 198.866L123.911 199.269L118.886 198.071C118.239 199.265 117.716 200.521 117.323 201.821L121.737 204.529L121.659 205.024C121.525 205.807 121.455 206.599 121.451 207.394C121.455 208.192 121.525 208.989 121.659 209.776L121.737 210.258L117.323 212.966C117.713 214.271 118.237 215.532 118.886 216.729L123.911 215.518L124.211 215.922C124.48 216.307 124.771 216.677 125.083 217.028C125.211 217.164 125.283 217.343 125.283 217.53C125.283 217.716 125.211 217.896 125.083 218.031C125.016 218.105 124.934 218.165 124.843 218.206C124.751 218.247 124.652 218.269 124.552 218.27C124.452 218.271 124.353 218.252 124.26 218.213C124.168 218.174 124.085 218.117 124.016 218.044ZM154.079 218.448L152.178 218.005C152.083 217.982 151.993 217.941 151.914 217.883C151.835 217.825 151.769 217.753 151.718 217.669C151.667 217.586 151.633 217.493 151.618 217.397C151.603 217.3 151.608 217.201 151.631 217.107C151.652 217.012 151.692 216.923 151.749 216.844C151.805 216.765 151.876 216.698 151.959 216.647C152.041 216.596 152.133 216.562 152.229 216.547C152.324 216.532 152.422 216.537 152.516 216.56L153.337 216.755C153.991 215.56 154.515 214.299 154.899 212.992L150.485 210.284L150.563 209.802C150.698 209.015 150.767 208.218 150.772 207.42C150.767 206.625 150.698 205.833 150.563 205.05L150.485 204.555L154.899 201.847C154.512 200.545 153.989 199.288 153.337 198.097L148.311 199.295L148.011 198.892C147.086 197.601 145.956 196.471 144.665 195.545L144.262 195.246L145.459 190.22C144.268 189.568 143.011 189.045 141.71 188.658L138.989 193.072L138.507 192.994C136.933 192.733 135.328 192.733 133.754 192.994L133.273 193.072L130.565 188.658L130.057 188.814C129.875 188.872 129.679 188.857 129.508 188.772C129.338 188.687 129.208 188.538 129.145 188.358C129.11 188.267 129.094 188.17 129.097 188.072C129.101 187.974 129.124 187.878 129.165 187.789C129.206 187.701 129.265 187.621 129.338 187.556C129.41 187.49 129.496 187.44 129.588 187.408L130.708 187.069L131.242 186.939L134.015 191.457C135.418 191.249 136.844 191.249 138.246 191.457L141.02 186.939L141.553 187.069C143.35 187.552 145.075 188.27 146.683 189.205L147.165 189.478L145.863 194.686C146.984 195.553 147.99 196.56 148.858 197.681L154.066 196.379L154.339 196.86C155.275 198.466 155.989 200.192 156.461 201.99L156.605 202.524L152.087 205.297C152.295 206.7 152.295 208.126 152.087 209.529L156.605 212.302L156.461 212.836C155.987 214.633 155.273 216.359 154.339 217.966L154.079 218.448ZM135.929 214.633C134.16 214.511 132.497 213.743 131.259 212.473C130.021 211.204 129.293 209.523 129.216 207.751C129.139 205.979 129.717 204.241 130.84 202.869C131.963 201.496 133.552 200.586 135.304 200.311C135.408 200.3 135.514 200.311 135.614 200.343C135.714 200.375 135.806 200.428 135.884 200.498C135.963 200.568 136.026 200.653 136.069 200.749C136.113 200.844 136.136 200.948 136.137 201.053C136.138 201.233 136.072 201.408 135.952 201.543C135.832 201.677 135.666 201.763 135.486 201.782C134.388 201.908 133.35 202.348 132.496 203.051C131.643 203.753 131.011 204.688 130.677 205.741C130.342 206.795 130.32 207.923 130.612 208.989C130.905 210.055 131.499 211.013 132.324 211.749C133.149 212.485 134.169 212.966 135.262 213.135C136.354 213.304 137.472 213.153 138.481 212.701C139.489 212.249 140.346 211.515 140.946 210.587C141.547 209.659 141.866 208.577 141.866 207.472C141.868 206.296 141.504 205.149 140.824 204.191C140.725 204.043 140.682 203.864 140.704 203.687C140.725 203.51 140.81 203.347 140.942 203.227C141.02 203.157 141.112 203.104 141.213 203.072C141.313 203.04 141.42 203.03 141.524 203.042C141.629 203.054 141.73 203.089 141.82 203.143C141.911 203.198 141.988 203.271 142.048 203.357C142.81 204.453 143.252 205.738 143.327 207.07C143.402 208.402 143.106 209.729 142.472 210.903C141.838 212.077 140.89 213.052 139.735 213.719C138.58 214.387 137.262 214.721 135.929 214.685V214.633Z" fill="#E6E6E6"/>
</svg>
