<svg width="223" height="344" viewBox="0 0 223 344" fill="none" xmlns="http://www.w3.org/2000/svg">
<path d="M202.212 0.870663H159.819L129.873 343.622H172.266C178.216 343.507 183.918 341.219 188.298 337.19C192.677 333.161 195.431 327.668 196.04 321.749L222.198 22.7312C222.501 19.9452 222.208 17.1264 221.337 14.4626C220.466 11.7988 219.038 9.35116 217.147 7.28274C215.256 5.21432 212.946 3.57261 210.37 2.46697C207.795 1.36133 205.014 0.817141 202.212 0.870663Z" fill="#407BFF"/>
<path d="M193.567 0.870839H50.0862C44.136 0.982293 38.4322 3.26688 34.0503 7.29382C29.6684 11.3208 26.9112 16.8118 26.2987 22.7314L0.141492 321.749C-0.159767 324.533 0.134394 327.349 1.00447 330.011C1.87455 332.672 3.30066 335.118 5.18817 337.187C7.07569 339.256 9.38148 340.899 11.9526 342.009C14.5237 343.118 17.3013 343.668 20.1012 343.622H163.568C169.511 343.495 175.202 341.202 179.573 337.174C183.944 333.146 186.693 327.661 187.304 321.749L213.461 22.7314C213.764 19.9531 213.473 17.1422 212.607 14.4849C211.742 11.8276 210.322 9.38455 208.44 7.31762C206.559 5.25069 204.261 3.60707 201.696 2.49566C199.132 1.38424 196.361 0.830403 193.567 0.870839Z" fill="#407BFF"/>
<path opacity="0.3" d="M193.567 0.870839H50.0862C44.136 0.982293 38.4322 3.26688 34.0503 7.29382C29.6684 11.3208 26.9112 16.8118 26.2987 22.7314L0.141492 321.749C-0.159767 324.533 0.134394 327.349 1.00447 330.011C1.87455 332.672 3.30066 335.118 5.18817 337.187C7.07569 339.256 9.38148 340.899 11.9526 342.009C14.5237 343.118 17.3013 343.668 20.1012 343.622H163.568C169.511 343.495 175.202 341.202 179.573 337.174C183.944 333.146 186.693 327.661 187.304 321.749L213.461 22.7314C213.764 19.9531 213.473 17.1422 212.607 14.4849C211.742 11.8276 210.322 9.38455 208.44 7.31762C206.559 5.25069 204.261 3.60707 201.696 2.49566C199.132 1.38424 196.361 0.830403 193.567 0.870839Z" fill="white"/>
<path opacity="0.4" d="M192.955 7.87545H155.119C153.991 7.88467 152.891 8.23205 151.963 8.87267C151.034 9.51329 150.32 10.4177 149.911 11.469C148.418 15.3305 145.809 18.6599 142.417 21.0322C139.024 23.4045 135.001 24.7122 130.862 24.7884H108.546C104.648 24.867 100.844 23.5838 97.7903 21.1597C94.7364 18.7356 92.6234 15.3224 91.8153 11.508C91.5998 10.476 91.0302 9.55185 90.2051 8.89558C89.38 8.2393 88.3514 7.89225 87.2974 7.91451H49.4743C45.4302 7.98601 41.5525 9.5373 38.575 12.2749C35.5975 15.0125 33.7267 18.7464 33.3164 22.7703L7.14626 321.788C6.93675 323.681 7.13336 325.597 7.723 327.408C8.31263 329.22 9.28171 330.884 10.5656 332.292C11.8495 333.699 13.4187 334.816 15.1686 335.569C16.9184 336.321 18.8086 336.692 20.7131 336.657H164.193C168.239 336.582 172.117 335.028 175.094 332.288C178.071 329.548 179.941 325.813 180.351 321.788L206.508 22.7703C206.722 20.8761 206.529 18.9582 205.941 17.1447C205.354 15.3311 204.387 13.6638 203.104 12.2539C201.821 10.8441 200.252 9.72424 198.502 8.96918C196.752 8.21412 194.861 7.84124 192.955 7.87545Z" fill="white"/>
<path d="M157.202 170.352H56.7915C56.1014 170.363 55.4168 170.228 54.783 169.955C54.1492 169.681 53.5808 169.276 53.1154 168.767C52.65 168.257 52.2983 167.654 52.0836 166.998C51.8689 166.342 51.7961 165.648 51.87 164.962L52.3778 159.207C52.527 157.748 53.2055 156.394 54.285 155.401C55.3644 154.407 56.7702 153.844 58.2368 153.817H158.66C159.35 153.805 160.035 153.941 160.669 154.214C161.302 154.487 161.871 154.892 162.336 155.402C162.802 155.912 163.153 156.515 163.368 157.171C163.583 157.827 163.656 158.521 163.582 159.207L163.087 164.962C162.934 166.424 162.251 167.78 161.167 168.773C160.083 169.767 158.672 170.328 157.202 170.352Z" fill="white"/>
<path d="M155.04 195.09H54.6172C53.9276 195.102 53.2434 194.966 52.6102 194.693C51.977 194.419 51.4093 194.014 50.9449 193.504C50.4805 192.994 50.1301 192.391 49.9169 191.735C49.7037 191.079 49.6328 190.385 49.7087 189.7L50.2034 183.945C50.3554 182.487 51.0347 181.134 52.1136 180.142C53.1925 179.149 54.5967 178.585 56.0624 178.555H156.486C157.176 178.543 157.86 178.679 158.494 178.952C159.128 179.225 159.696 179.63 160.162 180.14C160.627 180.65 160.979 181.253 161.194 181.909C161.408 182.565 161.481 183.259 161.407 183.945L160.899 189.7C160.747 191.158 160.068 192.51 158.989 193.503C157.91 194.495 156.506 195.06 155.04 195.09Z" fill="white"/>
<path opacity="0.1" d="M126.696 13.4741C126.53 15.0944 125.776 16.5977 124.576 17.6991C123.377 18.8005 121.814 19.4236 120.186 19.4503C119.421 19.4641 118.661 19.3146 117.958 19.012C117.255 18.7093 116.624 18.2603 116.108 17.6949C115.592 17.1295 115.202 16.4607 114.964 15.7329C114.727 15.0051 114.647 14.2351 114.731 13.4741C114.896 11.8538 115.65 10.3505 116.85 9.24902C118.05 8.14757 119.612 7.52451 121.241 7.49788C122.006 7.48409 122.766 7.63351 123.469 7.93617C124.172 8.23883 124.803 8.68781 125.319 9.25321C125.835 9.81861 126.225 10.4875 126.462 11.2152C126.7 11.943 126.779 12.7131 126.696 13.4741Z" fill="black"/>
<path opacity="0.1" d="M123.988 13.4741C123.896 14.3586 123.484 15.179 122.829 15.7809C122.174 16.3828 121.322 16.7246 120.433 16.7421C120.015 16.7502 119.599 16.6689 119.214 16.5036C118.83 16.3382 118.485 16.0927 118.202 15.7834C117.92 15.474 117.707 15.108 117.578 14.7098C117.448 14.3115 117.405 13.8902 117.452 13.4741C117.541 12.5885 117.952 11.7665 118.607 11.164C119.263 10.5616 120.116 10.2207 121.006 10.2061C121.424 10.2 121.839 10.2828 122.223 10.4488C122.606 10.6149 122.95 10.8604 123.232 11.1693C123.514 11.4782 123.727 11.8433 123.857 12.2406C123.988 12.6379 124.032 13.0583 123.988 13.4741Z" fill="black"/>
<g opacity="0.8">
<path d="M175.287 23.4474C175.062 23.4506 174.839 23.406 174.633 23.3166C174.427 23.2272 174.242 23.0951 174.09 22.9289C173.939 22.7628 173.825 22.5664 173.755 22.3528C173.685 22.1392 173.661 21.9132 173.685 21.6897L173.972 18.4868C174.019 18.0135 174.239 17.5743 174.59 17.2526C174.94 16.931 175.397 16.7493 175.872 16.7421C176.096 16.7392 176.318 16.7835 176.523 16.8721C176.728 16.9607 176.912 17.0916 177.063 17.2563C177.215 17.421 177.329 17.6157 177.4 17.8277C177.471 18.0398 177.496 18.2644 177.474 18.4868L177.188 21.6897C177.14 22.1643 176.92 22.605 176.57 22.9288C176.22 23.2526 175.763 23.4371 175.287 23.4474Z" fill="white"/>
<path d="M189.296 23.4474C189.071 23.4505 188.849 23.406 188.642 23.3166C188.436 23.2272 188.251 23.0951 188.1 22.9289C187.948 22.7628 187.834 22.5664 187.764 22.3528C187.694 22.1392 187.671 21.9132 187.695 21.6897L188.359 14.1772C188.406 13.7039 188.627 13.2647 188.977 12.943C189.327 12.6213 189.784 12.4397 190.26 12.4325C190.483 12.4296 190.705 12.4739 190.91 12.5625C191.115 12.6511 191.299 12.782 191.45 12.9467C191.602 13.1113 191.716 13.3061 191.787 13.5181C191.858 13.7301 191.883 13.9547 191.861 14.1772L191.197 21.6897C191.149 22.1643 190.93 22.605 190.58 22.9288C190.229 23.2526 189.773 23.4371 189.296 23.4474Z" fill="white"/>
<path d="M182.291 23.4474C182.067 23.4505 181.844 23.4059 181.638 23.3165C181.431 23.2271 181.246 23.095 181.095 22.9289C180.944 22.7627 180.829 22.5664 180.759 22.3528C180.69 22.1391 180.666 21.9131 180.69 21.6897L181.159 16.3385C181.206 15.8617 181.428 15.4192 181.781 15.0951C182.134 14.771 182.593 14.5879 183.073 14.5807C183.297 14.5774 183.519 14.6219 183.725 14.7114C183.93 14.8009 184.115 14.9333 184.265 15.0997C184.415 15.2661 184.528 15.4627 184.597 15.6763C184.665 15.8899 184.687 16.1157 184.661 16.3385L184.192 21.6897C184.145 22.1642 183.925 22.605 183.575 22.9288C183.225 23.2525 182.768 23.437 182.291 23.4474Z" fill="white"/>
</g>
<g opacity="0.8">
<path d="M55.3332 23.4474H46.5317C46.4051 23.4501 46.2793 23.4257 46.1629 23.3756C46.0465 23.3256 45.9422 23.2512 45.857 23.1574C45.7719 23.0636 45.7078 22.9526 45.6692 22.8319C45.6306 22.7112 45.6184 22.5837 45.6333 22.4579L46.037 17.7316C46.0655 17.4633 46.1911 17.2146 46.3901 17.0324C46.5891 16.8502 46.8478 16.7469 47.1176 16.7421H55.9191C56.0458 16.7393 56.1716 16.7638 56.288 16.8138C56.4044 16.8639 56.5087 16.9383 56.5938 17.0321C56.679 17.1259 56.743 17.2369 56.7816 17.3576C56.8202 17.4782 56.8324 17.6058 56.8175 17.7316L56.4009 22.4579C56.3782 22.7262 56.2561 22.9763 56.0587 23.1594C55.8612 23.3424 55.6025 23.4451 55.3332 23.4474Z" fill="white"/>
<path d="M59.4085 22.1584C59.2814 22.1609 59.1551 22.1364 59.0382 22.0865C58.9212 22.0365 58.8162 21.9624 58.73 21.8688C58.6439 21.7753 58.5786 21.6645 58.5384 21.5439C58.4983 21.4232 58.4842 21.2954 58.4971 21.1689L58.6924 19.0075C58.7182 18.7381 58.8429 18.4878 59.0425 18.3051C59.2421 18.1223 59.5024 18.02 59.7731 18.018C59.8997 18.0153 60.0255 18.0398 60.1419 18.0898C60.2583 18.1398 60.3626 18.2142 60.4478 18.308C60.5329 18.4018 60.597 18.5128 60.6356 18.6335C60.6741 18.7542 60.6864 18.8817 60.6715 19.0075L60.4892 21.1689C60.4606 21.4372 60.3351 21.6859 60.136 21.8681C59.937 22.0503 59.6783 22.1535 59.4085 22.1584Z" fill="white"/>
</g>
<path d="M140.657 132.504C158.177 115.732 159.924 89.1235 144.559 73.073C129.194 57.0225 102.535 57.6076 85.0149 74.3798C67.4944 91.1521 65.747 117.76 81.112 133.811C96.477 149.861 123.136 149.276 140.657 132.504Z" fill="white"/>
<path d="M112.986 101.841C101.945 101.841 92.6095 106.046 91.8153 115.173L90.93 125.316H130.94L131.826 115.173C132.62 106.046 124.04 101.841 112.986 101.841Z" fill="#407BFF"/>
<path d="M113.35 97.6614C118.48 97.6614 120.85 93.508 121.293 88.3782C121.735 83.2483 120.108 79.0949 114.978 79.0949C109.848 79.0949 107.491 83.2613 107.036 88.3782C106.58 93.495 108.221 97.6614 113.35 97.6614Z" fill="#407BFF"/>
<path d="M152.619 161.733C149.898 161.733 147.593 162.774 147.411 165.027L147.189 167.54H157.072L157.293 165.027C157.475 162.774 155.353 161.733 152.619 161.733Z" fill="#407BFF"/>
<path d="M152.71 160.704C154.012 160.704 154.559 159.676 154.676 158.413C154.793 157.15 154.376 156.121 153.113 156.121C151.851 156.121 151.265 157.15 151.147 158.413C151.03 159.676 151.447 160.704 152.71 160.704Z" fill="#407BFF"/>
<path d="M122.204 219.828H83.144C82.0848 219.847 81.0338 219.641 80.0607 219.222C79.0876 218.803 78.2148 218.182 77.5004 217.4C76.786 216.618 76.2463 215.693 75.9173 214.686C75.5884 213.679 75.4776 212.613 75.5924 211.56C75.8241 209.322 76.8669 207.245 78.5242 205.722C80.1815 204.199 82.3388 203.335 84.5892 203.293H123.649C124.708 203.276 125.758 203.484 126.73 203.903C127.702 204.322 128.574 204.943 129.288 205.725C130.002 206.507 130.542 207.431 130.871 208.437C131.201 209.443 131.313 210.508 131.201 211.56C130.972 213.8 129.93 215.879 128.272 217.402C126.614 218.926 124.455 219.789 122.204 219.828Z" fill="#407BFF"/>
<path d="M117.478 312.036H75.6705C74.549 312.066 73.434 311.854 72.4015 311.415C71.3691 310.976 70.4433 310.32 69.6872 309.491C68.9311 308.662 68.3625 307.68 68.02 306.611C67.6775 305.543 67.5691 304.413 67.7023 303.299L70.3714 272.806C70.61 270.441 71.708 268.245 73.4574 266.635C75.2067 265.025 77.4858 264.112 79.863 264.07H121.683C122.802 264.05 123.912 264.269 124.939 264.712C125.966 265.155 126.888 265.811 127.641 266.638C128.395 267.464 128.964 268.442 129.311 269.505C129.658 270.569 129.774 271.694 129.651 272.806L126.982 303.299C126.738 305.665 125.636 307.859 123.886 309.469C122.135 311.078 119.855 311.991 117.478 312.036Z" fill="#407BFF"/>
<g opacity="0.6">
<path d="M104.588 280.501C104.656 279.836 104.583 279.163 104.372 278.529C104.161 277.894 103.817 277.311 103.365 276.819C102.912 276.326 102.359 275.936 101.744 275.673C101.129 275.41 100.465 275.281 99.7966 275.293C98.3723 275.314 97.0046 275.855 95.9517 276.814C94.8988 277.773 94.2333 279.085 94.0808 280.501C93.9979 281.293 94.1155 282.094 94.4226 282.828C94.7297 283.563 95.2166 284.209 95.8385 284.707L94.9271 295.214C94.8825 295.612 94.9235 296.015 95.0472 296.396C95.1709 296.777 95.3746 297.127 95.6445 297.422C95.9145 297.718 96.2445 297.953 96.6125 298.111C96.9805 298.269 97.3781 298.347 97.7785 298.339C98.6269 298.321 99.4395 297.993 100.063 297.417C100.687 296.842 101.078 296.058 101.164 295.214L102.088 284.707C102.786 284.23 103.371 283.606 103.803 282.88C104.234 282.154 104.502 281.342 104.588 280.501Z" fill="white"/>
</g>
<path d="M122.048 270.424H116.657L117.959 255.334C118.187 253.239 117.966 251.12 117.312 249.118C116.658 247.115 115.586 245.275 114.166 243.718C112.746 242.162 111.012 240.925 109.078 240.091C107.143 239.256 105.054 238.842 102.947 238.876C98.4709 238.964 94.1809 240.685 90.8858 243.717C87.5907 246.748 85.5179 250.88 85.058 255.334L83.756 270.424H78.3657L79.6677 255.334C80.2741 249.423 83.0232 243.939 87.3959 239.916C91.7687 235.894 97.4627 233.611 103.403 233.499C106.199 233.451 108.973 233.999 111.541 235.106C114.109 236.212 116.412 237.853 118.297 239.918C120.183 241.983 121.607 244.426 122.476 247.083C123.345 249.741 123.638 252.554 123.337 255.334L122.048 270.424Z" fill="#407BFF"/>
<path d="M153.283 184.843L153.452 183.372C153.487 183.031 153.449 182.687 153.342 182.361C153.234 182.036 153.059 181.736 152.828 181.483C152.597 181.23 152.315 181.029 152.001 180.892C151.687 180.755 151.347 180.686 151.004 180.69C150.275 180.705 149.576 180.986 149.039 181.48C148.502 181.974 148.164 182.646 148.088 183.372L147.958 184.817C147.666 184.825 147.387 184.94 147.174 185.139C146.961 185.338 146.827 185.608 146.799 185.898L146.46 189.804C146.443 189.94 146.456 190.079 146.498 190.21C146.539 190.341 146.609 190.462 146.702 190.563C146.795 190.665 146.909 190.745 147.036 190.798C147.162 190.851 147.299 190.876 147.437 190.872H152.801C153.091 190.867 153.37 190.755 153.584 190.558C153.797 190.361 153.931 190.093 153.96 189.804L154.298 185.898C154.31 185.76 154.291 185.621 154.245 185.491C154.198 185.36 154.124 185.241 154.028 185.142C153.932 185.042 153.816 184.964 153.688 184.912C153.559 184.861 153.421 184.837 153.283 184.843ZM150.848 181.38C151.106 181.377 151.362 181.428 151.599 181.531C151.837 181.634 152.049 181.785 152.224 181.976C152.398 182.166 152.531 182.391 152.612 182.636C152.694 182.881 152.723 183.141 152.697 183.398L152.567 184.843H148.53L148.661 183.398C148.717 182.853 148.971 182.348 149.374 181.976C149.776 181.605 150.3 181.393 150.848 181.38Z" fill="#407BFF"/>
<path d="M72.5327 186.393L70.6578 186.002C70.6056 185.991 70.5565 185.969 70.5142 185.936C70.472 185.904 70.4376 185.862 70.4138 185.815C70.39 185.767 70.3773 185.715 70.3767 185.661C70.3761 185.608 70.3877 185.555 70.4104 185.507L71.1917 183.658C71.2242 183.579 71.2273 183.49 71.2005 183.408C71.1737 183.326 71.1188 183.256 71.0454 183.211C70.972 183.165 70.885 183.148 70.7997 183.16C70.7145 183.173 70.6365 183.216 70.5797 183.281L69.1605 184.739C69.1264 184.782 69.0829 184.817 69.0333 184.842C68.9837 184.866 68.9292 184.878 68.8741 184.878C68.8189 184.878 68.7645 184.866 68.7149 184.842C68.6653 184.817 68.6218 184.782 68.5877 184.739L67.4289 183.281C67.1815 182.968 66.6477 183.281 66.7388 183.658L67.1945 185.507C67.2078 185.561 67.2098 185.617 67.2004 185.672C67.191 185.727 67.1704 185.779 67.1398 185.826C67.1093 185.872 67.0694 185.912 67.0228 185.942C66.9762 185.972 66.9239 185.993 66.869 186.002L64.929 186.393C64.5124 186.471 64.4603 187.057 64.8639 187.135L66.7388 187.525C66.7913 187.535 66.8406 187.557 66.8829 187.59C66.9251 187.623 66.9591 187.665 66.9819 187.713C67.0048 187.761 67.0159 187.814 67.0144 187.868C67.0129 187.921 66.9987 187.973 66.9731 188.02L66.218 189.882C66.1855 189.962 66.1824 190.051 66.2091 190.133C66.2359 190.215 66.2908 190.284 66.3642 190.33C66.4376 190.375 66.5247 190.393 66.6099 190.38C66.6952 190.367 66.7731 190.324 66.8299 190.26L68.2491 188.801C68.2857 188.762 68.33 188.73 68.3793 188.709C68.4286 188.687 68.4818 188.676 68.5356 188.676C68.5893 188.676 68.6425 188.687 68.6918 188.709C68.7411 188.73 68.7854 188.762 68.822 188.801L69.9808 190.26C70.2282 190.572 70.762 190.26 70.6578 189.882L70.2021 188.033C70.183 187.923 70.2076 187.809 70.2708 187.717C70.334 187.625 70.4309 187.56 70.5407 187.538L72.4806 187.148C72.8842 187.057 72.9363 186.471 72.5327 186.393Z" fill="#263238"/>
<path d="M84.8496 186.393L82.9747 186.002C82.9225 185.991 82.8735 185.969 82.8312 185.936C82.7889 185.904 82.7545 185.862 82.7307 185.815C82.7069 185.767 82.6942 185.715 82.6936 185.661C82.693 185.608 82.7046 185.555 82.7273 185.507L83.5086 183.658C83.5411 183.579 83.5442 183.49 83.5174 183.408C83.4906 183.326 83.4357 183.256 83.3623 183.211C83.289 183.165 83.2019 183.148 83.1166 183.16C83.0314 183.173 82.9534 183.216 82.8966 183.281L81.4774 184.739C81.4433 184.782 81.3998 184.817 81.3502 184.842C81.3006 184.866 81.2462 184.878 81.191 184.878C81.1358 184.878 81.0814 184.866 81.0318 184.842C80.9822 184.817 80.9387 184.782 80.9046 184.739L79.7458 183.281C79.4984 182.968 78.9646 183.281 79.0687 183.658L79.5244 185.507C79.5357 185.562 79.5358 185.619 79.5248 185.673C79.5138 185.728 79.4918 185.78 79.4602 185.826C79.4286 185.873 79.388 185.912 79.3409 185.942C79.2938 185.972 79.2411 185.993 79.1859 186.002L77.2459 186.393C76.8293 186.471 76.7772 187.057 77.1809 187.135L79.0557 187.525C79.1079 187.536 79.157 187.558 79.1993 187.591C79.2416 187.623 79.2759 187.665 79.2997 187.713C79.3236 187.76 79.3363 187.813 79.3369 187.866C79.3374 187.919 79.3259 187.972 79.3031 188.02L78.5219 189.869C78.4894 189.949 78.4862 190.038 78.513 190.12C78.5398 190.202 78.5948 190.271 78.6681 190.317C78.7415 190.362 78.8285 190.38 78.9138 190.367C78.9991 190.354 79.0771 190.311 79.1339 190.247L80.553 188.788C80.5896 188.749 80.6339 188.717 80.6832 188.696C80.7325 188.674 80.7857 188.663 80.8395 188.663C80.8933 188.663 80.9465 188.674 80.9957 188.696C81.045 188.717 81.0894 188.749 81.1259 188.788L82.2847 190.247C82.5321 190.559 83.0659 190.246 82.9747 189.869L82.519 188.02C82.5076 187.966 82.507 187.911 82.5172 187.856C82.5275 187.802 82.5483 187.751 82.5786 187.705C82.6089 187.659 82.6479 187.619 82.6936 187.588C82.7392 187.558 82.7905 187.536 82.8445 187.525L84.7845 187.135C85.2012 187.057 85.2532 186.471 84.8496 186.393Z" fill="#263238"/>
<path d="M97.1665 186.393L95.3047 186.002C95.2511 185.994 95.2002 185.973 95.1564 185.941C95.1125 185.909 95.077 185.867 95.0528 185.819C95.0285 185.77 95.0163 185.717 95.0171 185.663C95.0178 185.608 95.0316 185.555 95.0573 185.507L95.8385 183.658C95.8886 183.576 95.9036 183.476 95.8804 183.382C95.8572 183.288 95.7977 183.207 95.7148 183.157C95.6319 183.107 95.5325 183.092 95.4385 183.115C95.3445 183.138 95.2636 183.198 95.2135 183.281L93.8074 184.739C93.772 184.783 93.7273 184.818 93.6766 184.842C93.6259 184.866 93.5705 184.879 93.5144 184.879C93.4583 184.879 93.4029 184.866 93.3522 184.842C93.3015 184.818 93.2569 184.783 93.2214 184.739L92.0627 183.281C91.8153 182.968 91.2815 183.281 91.3856 183.658L91.8413 185.507C91.8527 185.561 91.8533 185.617 91.8431 185.671C91.8329 185.725 91.8121 185.777 91.7818 185.823C91.7515 185.869 91.7124 185.908 91.6668 185.939C91.6211 185.97 91.5698 185.991 91.5158 186.002L89.5759 186.393C89.1592 186.471 89.1072 187.057 89.5108 187.135L91.3726 187.525C91.4248 187.536 91.4739 187.558 91.5162 187.591C91.5585 187.623 91.5928 187.665 91.6167 187.713C91.6405 187.76 91.6532 187.813 91.6537 187.866C91.6543 187.919 91.6428 187.972 91.62 188.02L90.8388 189.869C90.7887 189.952 90.7737 190.051 90.7968 190.145C90.82 190.239 90.8796 190.32 90.9625 190.37C91.0454 190.42 91.1447 190.435 91.2387 190.412C91.3327 190.389 91.4137 190.329 91.4638 190.247L92.8699 188.788C92.9065 188.749 92.9508 188.717 93.0001 188.696C93.0494 188.674 93.1026 188.663 93.1564 188.663C93.2101 188.663 93.2633 188.674 93.3126 188.696C93.3619 188.717 93.4062 188.749 93.4428 188.788L94.6146 190.247C94.862 190.559 95.3958 190.247 95.2916 189.869L94.836 188.02C94.8164 187.912 94.8393 187.8 94.8998 187.708C94.9604 187.616 95.0541 187.55 95.1615 187.525L97.1014 187.135C97.466 187.057 97.5701 186.471 97.1665 186.393Z" fill="#263238"/>
<path d="M109.496 186.393L107.622 186.002C107.569 185.991 107.52 185.969 107.478 185.936C107.436 185.904 107.401 185.862 107.378 185.815C107.354 185.767 107.341 185.715 107.34 185.661C107.34 185.608 107.351 185.555 107.374 185.507L108.155 183.658C108.188 183.579 108.191 183.49 108.164 183.408C108.137 183.326 108.083 183.256 108.009 183.211C107.936 183.165 107.849 183.148 107.764 183.16C107.678 183.173 107.6 183.216 107.543 183.281L106.124 184.739C106.09 184.782 106.047 184.817 105.997 184.842C105.947 184.866 105.893 184.878 105.838 184.878C105.783 184.878 105.728 184.866 105.679 184.842C105.629 184.817 105.586 184.782 105.551 184.739L104.393 183.281C104.145 182.968 103.611 183.281 103.703 183.658L104.158 185.507C104.172 185.561 104.174 185.617 104.164 185.672C104.155 185.727 104.134 185.779 104.104 185.826C104.073 185.872 104.033 185.912 103.987 185.942C103.94 185.972 103.888 185.993 103.833 186.002L101.893 186.393C101.476 186.471 101.424 187.057 101.893 187.135L103.768 187.525C103.82 187.535 103.869 187.557 103.912 187.59C103.954 187.623 103.988 187.665 104.011 187.713C104.034 187.761 104.045 187.814 104.043 187.868C104.042 187.921 104.028 187.973 104.002 188.02L103.234 189.869C103.201 189.949 103.198 190.038 103.225 190.12C103.252 190.202 103.307 190.271 103.38 190.317C103.453 190.362 103.541 190.38 103.626 190.367C103.711 190.354 103.789 190.311 103.846 190.247L105.265 188.788C105.302 188.749 105.346 188.717 105.395 188.696C105.444 188.674 105.498 188.663 105.551 188.663C105.605 188.663 105.658 188.674 105.708 188.696C105.757 188.717 105.801 188.749 105.838 188.788L106.997 190.247C107.244 190.559 107.778 190.246 107.674 189.869L107.218 188.02C107.199 187.91 107.223 187.796 107.287 187.704C107.35 187.611 107.447 187.547 107.556 187.525L109.496 187.135C109.848 187.057 109.9 186.471 109.496 186.393Z" fill="#263238"/>
<path d="M121.813 186.393L119.939 186.002C119.886 185.991 119.837 185.969 119.795 185.936C119.753 185.904 119.718 185.862 119.694 185.815C119.671 185.767 119.658 185.715 119.657 185.661C119.657 185.608 119.668 185.555 119.691 185.507L120.472 183.658C120.505 183.579 120.508 183.49 120.481 183.408C120.454 183.326 120.399 183.256 120.326 183.211C120.253 183.165 120.166 183.148 120.08 183.16C119.995 183.173 119.917 183.216 119.86 183.281L118.441 184.739C118.407 184.782 118.364 184.817 118.314 184.842C118.264 184.866 118.21 184.878 118.155 184.878C118.1 184.878 118.045 184.866 117.996 184.842C117.946 184.817 117.902 184.782 117.868 184.739L116.71 183.281C116.462 182.968 115.928 183.281 116.033 183.658L116.488 185.507C116.499 185.562 116.5 185.619 116.489 185.673C116.478 185.728 116.456 185.78 116.424 185.826C116.392 185.873 116.352 185.912 116.305 185.942C116.258 185.972 116.205 185.993 116.15 186.002L114.21 186.393C113.793 186.471 113.741 187.057 114.145 187.135L116.019 187.525C116.072 187.536 116.121 187.558 116.163 187.591C116.205 187.623 116.24 187.665 116.264 187.713C116.287 187.76 116.3 187.813 116.301 187.866C116.301 187.919 116.29 187.972 116.267 188.02L115.486 189.869C115.453 189.949 115.45 190.038 115.477 190.12C115.504 190.202 115.559 190.271 115.632 190.317C115.705 190.362 115.792 190.38 115.878 190.367C115.963 190.354 116.041 190.311 116.098 190.247L117.517 188.788C117.553 188.749 117.598 188.717 117.647 188.696C117.696 188.674 117.749 188.663 117.803 188.663C117.857 188.663 117.91 188.674 117.959 188.696C118.009 188.717 118.053 188.749 118.09 188.788L119.248 190.247C119.496 190.559 120.03 190.246 119.939 189.869L119.483 188.02C119.471 187.966 119.471 187.911 119.481 187.856C119.491 187.802 119.512 187.751 119.542 187.705C119.573 187.659 119.612 187.619 119.657 187.588C119.703 187.558 119.754 187.536 119.808 187.525L121.748 187.135C122.204 187.057 122.204 186.471 121.813 186.393Z" fill="#263238"/>
<path d="M134.13 186.393L132.255 186.002C132.203 185.992 132.154 185.97 132.111 185.937C132.069 185.905 132.035 185.863 132.012 185.814C131.989 185.766 131.978 185.713 131.98 185.66C131.981 185.606 131.996 185.554 132.021 185.507L132.802 183.659C132.827 183.618 132.844 183.572 132.851 183.525C132.858 183.477 132.856 183.429 132.844 183.382C132.833 183.336 132.812 183.292 132.784 183.253C132.755 183.215 132.72 183.182 132.679 183.157C132.638 183.132 132.592 183.116 132.545 183.109C132.497 183.102 132.449 183.104 132.402 183.115C132.356 183.127 132.312 183.147 132.273 183.176C132.235 183.204 132.202 183.24 132.177 183.281L130.771 184.739C130.736 184.783 130.691 184.818 130.64 184.842C130.59 184.866 130.534 184.879 130.478 184.879C130.422 184.879 130.367 184.866 130.316 184.842C130.265 184.818 130.221 184.783 130.185 184.739L129.026 183.281C128.779 182.968 128.245 183.281 128.349 183.659L128.805 185.507C128.817 185.561 128.817 185.617 128.807 185.671C128.797 185.725 128.776 185.777 128.746 185.823C128.715 185.869 128.676 185.908 128.631 185.939C128.585 185.97 128.534 185.991 128.48 186.002L126.54 186.393C126.123 186.471 126.071 187.057 126.475 187.135L128.336 187.525C128.389 187.536 128.438 187.559 128.48 187.591C128.522 187.623 128.557 187.665 128.58 187.713C128.604 187.76 128.617 187.813 128.618 187.866C128.618 187.919 128.607 187.972 128.584 188.02L127.803 189.869C127.753 189.952 127.737 190.051 127.761 190.145C127.784 190.239 127.843 190.32 127.926 190.37C128.009 190.42 128.109 190.436 128.203 190.412C128.297 190.389 128.377 190.33 128.428 190.247L129.834 188.788C129.87 188.749 129.915 188.718 129.964 188.696C130.013 188.674 130.066 188.663 130.12 188.663C130.174 188.663 130.227 188.674 130.276 188.696C130.326 188.718 130.37 188.749 130.407 188.788L131.565 190.247C131.626 190.315 131.708 190.36 131.798 190.376C131.888 190.392 131.981 190.376 132.061 190.332C132.141 190.289 132.204 190.219 132.239 190.135C132.274 190.051 132.28 189.957 132.255 189.869L131.8 188.02C131.78 187.912 131.803 187.8 131.864 187.708C131.924 187.616 132.018 187.55 132.125 187.525L134.065 187.135C134.482 187.057 134.534 186.471 134.13 186.393Z" fill="#263238"/>
<path d="M104.432 159.428H81.3082C80.5986 159.44 79.918 159.712 79.395 160.192C78.8721 160.672 78.5429 161.326 78.4698 162.032C78.4326 162.364 78.4669 162.701 78.5704 163.019C78.6739 163.337 78.8441 163.629 79.0698 163.875C79.2955 164.122 79.5713 164.317 79.8788 164.449C80.1863 164.58 80.5183 164.644 80.8525 164.636H103.976C104.686 164.624 105.366 164.352 105.889 163.873C106.412 163.393 106.741 162.738 106.814 162.032C106.849 161.7 106.814 161.365 106.709 161.048C106.605 160.731 106.435 160.44 106.209 160.194C105.984 159.947 105.709 159.752 105.403 159.62C105.096 159.488 104.765 159.423 104.432 159.428Z" fill="#263238"/>
<path d="M127.92 159.428H114.496C113.788 159.441 113.109 159.713 112.588 160.193C112.067 160.673 111.741 161.327 111.671 162.032C111.634 162.363 111.668 162.699 111.77 163.016C111.873 163.332 112.042 163.624 112.267 163.87C112.491 164.117 112.765 164.313 113.071 164.445C113.377 164.577 113.707 164.642 114.04 164.636H127.412C128.12 164.624 128.799 164.352 129.32 163.872C129.841 163.392 130.167 162.737 130.237 162.032C130.274 161.705 130.241 161.375 130.142 161.061C130.042 160.748 129.877 160.459 129.659 160.214C129.44 159.968 129.173 159.771 128.873 159.636C128.573 159.501 128.249 159.43 127.92 159.428Z" fill="#263238"/>
<path d="M145.64 277.455C137.467 280.568 130.089 285.46 124.04 291.777C120.367 288.925 115.988 287.125 111.371 286.569L110.759 286.477L110.499 289.55L110.838 289.68C115.901 291.545 120.183 295.069 122.985 299.68L123.428 300.409L123.91 299.628C129.302 291.02 136.911 284.022 145.939 279.369L146.239 279.212L146.408 277.181L145.64 277.455Z" fill="#263238"/>
</svg>
