<svg width="960" height="958" viewBox="0 0 960 958" fill="none" xmlns="http://www.w3.org/2000/svg">
<g filter="url(#filter0_bd_7_167)">
<path d="M672.953 140.227C727.843 173.416 767.84 230.859 800.178 291.28C832.516 351.701 857.195 415.1 859.322 479.776C861.45 544.453 841.026 609.979 807.837 669.124C774.648 728.268 728.694 780.605 671.677 812.092C614.66 843.579 546.58 854.216 479.351 853.365C411.696 852.089 344.893 838.898 290.854 805.709C237.241 772.095 195.968 718.907 161.928 661.039C127.462 603.172 100.23 540.623 100.23 478.5C100.23 416.377 127.462 353.828 159.8 292.982C192.564 232.135 230.008 172.991 284.046 138.951C338.085 104.911 408.292 96.401 478.074 96.8265C548.282 97.252 618.064 106.613 672.953 140.227Z" fill="#77AFCB" fill-opacity="0.7" shape-rendering="crispEdges"/>
</g>
<defs>
<filter id="filter0_bd_7_167" x="0.230469" y="0.811523" width="959.244" height="956.601" filterUnits="userSpaceOnUse" color-interpolation-filters="sRGB">
<feFlood flood-opacity="0" result="BackgroundImageFix"/>
<feGaussianBlur in="BackgroundImage" stdDeviation="10"/>
<feComposite in2="SourceAlpha" operator="in" result="effect1_backgroundBlur_7_167"/>
<feColorMatrix in="SourceAlpha" type="matrix" values="0 0 0 0 0 0 0 0 0 0 0 0 0 0 0 0 0 0 127 0" result="hardAlpha"/>
<feOffset dy="4"/>
<feGaussianBlur stdDeviation="50"/>
<feComposite in2="hardAlpha" operator="out"/>
<feColorMatrix type="matrix" values="0 0 0 0 0.14902 0 0 0 0 0.196078 0 0 0 0 0.219608 0 0 0 0.15 0"/>
<feBlend mode="normal" in2="effect1_backgroundBlur_7_167" result="effect2_dropShadow_7_167"/>
<feBlend mode="normal" in="SourceGraphic" in2="effect2_dropShadow_7_167" result="shape"/>
</filter>
</defs>
</svg>
